<svg width="281" height="331" viewBox="0 0 281 331" fill="none" xmlns="http://www.w3.org/2000/svg">
<g filter="url(#filter0_b_37_2735)">
<g filter="url(#filter1_b_37_2735)">
<path d="M15.1666 53.2212C16.2578 70.3178 38.9623 73.6825 50.1781 73.2278C54.2703 73.2278 62.4548 69.2265 62.4548 53.2212C62.4548 33.2147 80.1879 33.2147 80.1879 19.5738C80.1879 5.933 76.5504 3.20482 62.4548 0.931341C48.3593 -1.34213 33.8091 15.9363 27.4433 19.5738C21.0776 23.2114 13.8025 31.8506 15.1666 53.2212Z" fill="#D9D9D9" fill-opacity="0.4"/>
</g>
<path d="M59.5301 205.61C15.0665 231.282 15.0675 272.903 59.5326 298.574C103.998 324.245 176.088 324.245 220.552 298.574C265.016 272.903 265.015 231.282 220.549 205.61C176.084 179.94 103.994 179.94 59.5301 205.61Z" fill="#F5F5F5"/>
<path d="M50.2561 182.087C50.2481 182.091 50.2406 182.095 50.2321 182.099C49.5614 182.428 48.8456 182.707 48.1054 182.928C47.3652 183.15 46.6134 183.31 45.8722 183.403C45.518 183.447 45.1869 183.23 45.0839 182.886L44.5352 181.052C43.4869 181.09 42.45 180.985 41.4462 180.74L40.5414 182.418C40.3709 182.734 40.0027 182.88 39.6641 182.765C38.2176 182.272 36.8682 181.546 35.6553 180.606C35.3767 180.391 35.2937 179.994 35.4627 179.681L36.371 177.997C35.6093 177.288 34.9511 176.482 34.4104 175.594L32.5818 176.14C32.2382 176.243 31.8741 176.086 31.7165 175.768C31.3799 175.082 31.0983 174.365 30.8797 173.635C30.6627 172.907 30.5046 172.155 30.4096 171.399C30.3661 171.046 30.5801 170.715 30.9283 170.613L32.7559 170.066C32.7208 169.028 32.8274 167.991 33.074 166.975L31.3924 166.072C31.0798 165.903 30.9303 165.525 31.0453 165.192C31.543 163.74 32.2717 162.392 33.2095 161.187C33.4286 160.907 33.8172 160.825 34.1333 160.996L35.8109 161.901C36.5231 161.135 37.3329 160.478 38.2216 159.943L37.6735 158.111C37.5699 157.766 37.7215 157.394 38.0476 157.245C38.7188 156.916 39.4345 156.637 40.1753 156.416C40.9165 156.194 41.6678 156.034 42.4085 155.941C42.7621 155.896 43.0932 156.114 43.1968 156.458L43.7445 158.29C44.7813 158.25 45.8186 158.355 46.835 158.604L47.7398 156.926C47.9073 156.614 48.285 156.465 48.6171 156.579C50.0635 157.071 51.412 157.797 52.6254 158.737C52.9035 158.952 52.9865 159.35 52.8184 159.662L51.9086 161.342C52.6724 162.056 53.3311 162.864 53.8708 163.751L55.6994 163.204C56.044 163.101 56.4081 163.258 56.5647 163.578C56.8923 164.246 57.1714 164.963 57.3939 165.705C57.609 166.427 57.7686 167.179 57.8686 167.942C57.9151 168.296 57.7 168.625 57.3519 168.733L55.5248 169.279C55.5598 170.318 55.4533 171.354 55.2062 172.365L56.8838 173.27C57.1999 173.441 57.3464 173.81 57.2314 174.147C56.7367 175.602 56.01 176.952 55.0722 178.157C54.8536 178.439 54.4645 178.52 54.1484 178.349L52.4708 177.444C51.7656 178.2 50.9568 178.857 50.0595 179.401L50.6082 181.234C50.7072 181.57 50.5602 181.925 50.2561 182.087ZM41.1056 180.033C41.1811 179.992 41.2716 179.98 41.3592 180.004C42.4605 180.301 43.6074 180.417 44.7688 180.348C44.9289 180.339 45.0749 180.441 45.1209 180.595L45.7471 182.687C46.4879 182.628 47.2021 182.476 47.9063 182.266C48.6106 182.055 49.2903 181.79 49.9275 181.478L49.3168 179.34C49.2708 179.186 49.3368 179.021 49.4758 178.941C50.4837 178.362 51.3785 177.634 52.1367 176.781C52.2438 176.66 52.4188 176.63 52.5599 176.706L54.4755 177.74C55.4143 176.587 56.104 175.306 56.5737 173.924L54.6375 172.846C54.496 172.77 54.4255 172.607 54.4675 172.451C54.7681 171.339 54.8856 170.193 54.8191 169.045C54.8101 168.885 54.9131 168.738 55.0657 168.693L57.1519 168.07C57.1669 168.064 57.1819 168.047 57.1804 168.031C57.0858 167.305 56.9343 166.59 56.7292 165.904C56.5182 165.198 56.2531 164.518 55.9415 163.884L53.8093 164.492C53.6552 164.539 53.4902 164.472 53.4096 164.333C52.8369 163.34 52.1077 162.445 51.2434 161.674C51.1239 161.567 51.0929 161.392 51.1694 161.251L52.2077 159.334C51.0479 158.392 49.7664 157.703 48.393 157.236L47.3146 159.172C47.2376 159.314 47.0756 159.384 46.919 159.342C45.8016 159.04 44.6553 158.924 43.5114 158.997C43.3503 159.007 43.2038 158.905 43.1573 158.751L42.5316 156.658C41.7908 156.717 41.0776 156.869 40.3724 157.08C39.6681 157.291 38.9884 157.556 38.3512 157.867L38.9619 160.006C39.0079 160.161 38.9414 160.326 38.8013 160.406C37.805 160.973 36.9107 161.699 36.1425 162.565C36.0344 162.685 35.8604 162.716 35.7188 162.64L33.8027 161.606C32.8634 162.758 32.1712 164.038 31.6985 165.418L33.6391 166.495C33.7802 166.571 33.8512 166.734 33.8097 166.889C33.5101 168.007 33.3921 169.156 33.4591 170.301C33.4681 170.461 33.3661 170.608 33.2125 170.653L31.1248 171.277C31.1853 172.032 31.3354 172.747 31.542 173.438C31.7495 174.131 32.0166 174.812 32.3362 175.463L34.4689 174.854C34.623 174.807 34.7875 174.873 34.8685 175.012C35.4427 176.009 36.1715 176.902 37.0323 177.666C37.1528 177.772 37.1838 177.948 37.1078 178.089L36.0704 180.012C37.2303 180.953 38.5117 181.643 39.8852 182.111L40.963 180.175C40.9976 180.112 41.0471 180.064 41.1056 180.033ZM47.3676 175.506C45.345 176.588 42.9797 176.619 40.9736 175.537C38.6458 174.281 37.3043 171.798 37.4724 169.057C37.5839 167.249 38.5157 165.521 39.9662 164.435C42.1649 162.788 44.9764 162.546 47.3041 163.802C49.6329 165.058 50.9743 167.541 50.8058 170.282C50.6937 172.091 49.7624 173.819 48.312 174.904C48.0074 175.131 47.6923 175.332 47.3676 175.506ZM41.2346 164.444C40.941 164.602 40.6554 164.783 40.3809 164.989C39.0909 165.955 38.2622 167.491 38.1641 169.1C38.0121 171.568 39.215 173.801 41.3022 174.927C43.3903 176.054 45.9177 175.833 47.8963 174.35C49.1852 173.384 50.0145 171.848 50.1136 170.24C50.2656 167.771 49.0632 165.538 46.975 164.411C45.1769 163.442 43.0532 163.471 41.2346 164.444Z" fill="#F0F0F0"/>
<path d="M74.5426 136.794C73.5167 137.562 72.858 138.784 72.779 140.062C72.6604 141.998 73.6083 143.752 75.2528 144.64C76.4662 145.295 77.9007 145.374 79.1956 144.881C79.3912 144.807 79.5832 144.719 79.7708 144.618C80.0009 144.495 80.2249 144.352 80.4365 144.193C81.4618 143.426 82.1211 142.204 82.2001 140.925C82.3191 138.989 81.3708 137.235 79.7258 136.347C78.0807 135.459 76.0946 135.632 74.5426 136.794ZM81.6189 140.89C81.5509 142 80.9787 143.061 80.0884 143.728C78.7204 144.754 76.9734 144.907 75.5289 144.128C74.0854 143.349 73.2541 141.805 73.3597 140.098C73.4272 138.988 73.9994 137.927 74.8902 137.26C75.0792 137.119 75.2778 136.991 75.4814 136.882C75.6474 136.793 75.817 136.716 75.9895 136.651C77.1279 136.217 78.3863 136.286 79.4492 136.859C80.8932 137.638 81.7244 139.182 81.6189 140.89ZM86.2224 136.212C86.1024 135.966 85.8233 135.846 85.5592 135.925L84.3168 136.297C83.9487 135.699 83.5005 135.148 82.9833 134.66L83.602 133.518C83.7306 133.279 83.6671 132.974 83.454 132.81C82.6012 132.149 81.6529 131.638 80.6371 131.293C80.3825 131.206 80.0934 131.32 79.9648 131.558L79.3496 132.698C78.6604 132.533 77.9542 132.461 77.2495 132.485L76.8778 131.24C76.7983 130.975 76.5447 130.809 76.2736 130.843C75.7525 130.909 75.2243 131.021 74.7036 131.177C74.1829 131.332 73.6793 131.529 73.2096 131.759C72.965 131.871 72.841 132.156 72.921 132.423L73.2937 133.668C72.6915 134.035 72.1408 134.483 71.6556 134.999L70.5157 134.384C70.2737 134.253 69.9756 134.316 69.808 134.531C69.1483 135.378 68.6366 136.325 68.287 137.346C68.1995 137.601 68.3135 137.891 68.5526 138.019L69.6955 138.634C69.5314 139.323 69.4584 140.029 69.4794 140.734L68.238 141.105C67.9769 141.18 67.8069 141.436 67.8409 141.708C67.9074 142.24 68.0184 142.769 68.171 143.28C68.324 143.791 68.5216 144.295 68.7597 144.779C68.8807 145.023 69.1593 145.143 69.4224 145.064L70.6648 144.692C71.0339 145.293 71.4821 145.842 71.9972 146.326L71.38 147.47C71.2505 147.709 71.314 148.014 71.5276 148.179C72.3794 148.839 73.3272 149.35 74.345 149.697C74.6041 149.785 74.8872 149.673 75.0177 149.431L75.6324 148.29C76.3146 148.453 77.0209 148.524 77.7321 148.502L78.1047 149.748C78.1838 150.012 78.4373 150.178 78.7084 150.145C79.2301 150.079 79.7578 149.967 80.278 149.811C80.5135 149.741 80.7456 149.662 80.9737 149.575C81.2488 149.47 81.5179 149.354 81.7794 149.225L81.7914 149.218C82.023 149.094 82.1361 148.819 82.06 148.565L81.6874 147.319C82.2936 146.947 82.8443 146.5 83.3259 145.988L84.4658 146.604C84.7084 146.735 85.0065 146.673 85.1736 146.457C85.8333 145.608 86.3439 144.659 86.6916 143.638C86.7796 143.379 86.6675 143.096 86.4255 142.966L85.2851 142.351C85.4496 141.664 85.5227 140.958 85.5022 140.254L86.7446 139.882C87.0067 139.805 87.1752 139.546 87.1397 139.276C87.0697 138.741 86.9576 138.212 86.8061 137.705C86.649 137.185 86.453 136.682 86.2224 136.212ZM86.2474 137.874C86.388 138.343 86.493 138.835 86.5585 139.333L85.117 139.764C84.983 139.803 84.9025 139.926 84.9095 140.059C84.9555 140.858 84.874 141.654 84.6654 142.426C84.6299 142.557 84.6884 142.693 84.8074 142.758L86.1259 143.492C85.7968 144.446 85.3191 145.315 84.7054 146.075L83.401 145.372C83.2819 145.307 83.1359 145.333 83.0454 145.435C82.5187 146.028 81.897 146.533 81.1968 146.936C81.0797 147.003 81.0247 147.141 81.0627 147.271L81.4788 148.727C81.0452 148.937 80.5845 149.114 80.1094 149.257C79.5922 149.412 79.1141 149.507 78.6489 149.547L78.2223 148.121C78.1833 147.991 78.0612 147.906 77.9262 147.914C77.1204 147.962 76.3237 147.882 75.5574 147.674C75.4859 147.655 75.4079 147.665 75.3443 147.699C75.2943 147.726 75.2533 147.767 75.2253 147.817L74.4915 149.135C73.5422 148.807 72.6735 148.33 71.9087 147.714L72.6149 146.406C72.6795 146.286 72.6534 146.139 72.5514 146.05C71.9527 145.519 71.447 144.899 71.0479 144.206C70.9804 144.089 70.8424 144.034 70.7133 144.073L69.2613 144.487C69.0473 144.047 68.8672 143.586 68.7267 143.116C68.5746 142.609 68.4811 142.13 68.4396 141.654L69.861 141.228C69.8685 141.226 69.876 141.224 69.8835 141.221C70.0006 141.176 70.0756 141.061 70.0686 140.933C70.0221 140.137 70.1041 139.34 70.3122 138.562C70.3472 138.431 70.2882 138.295 70.1696 138.231L68.8482 137.498C69.1793 136.547 69.658 135.679 70.2727 134.917L71.5771 135.621C71.6961 135.685 71.8422 135.66 71.9327 135.559C72.4669 134.956 73.0886 134.451 73.7798 134.058C73.8979 133.99 73.9539 133.852 73.9154 133.722L73.4992 132.266C73.9319 132.057 74.3915 131.879 74.8687 131.736C75.3858 131.582 75.864 131.487 76.3292 131.446L76.7553 132.872C76.7948 133.002 76.9173 133.087 77.0529 133.079C77.8472 133.028 78.6429 133.108 79.4202 133.318C79.5497 133.354 79.6873 133.295 79.7518 133.176L80.486 131.858C81.4353 132.186 82.3036 132.664 83.0689 133.279L82.3626 134.583C82.2981 134.702 82.3236 134.848 82.4247 134.939C83.0258 135.474 83.532 136.096 83.9302 136.786C83.9982 136.903 84.1362 136.958 84.2648 136.919L85.7162 136.505C85.9263 136.934 86.1044 137.395 86.2474 137.874Z" fill="#F0F0F0"/>
<path d="M43.7199 110.01C42.6941 110.778 42.0354 112 41.9564 113.279C41.8378 115.214 42.7856 116.968 44.4302 117.856C45.6436 118.511 47.078 118.59 48.373 118.097C48.5685 118.022 48.7606 117.935 48.9482 117.834C49.1782 117.711 49.4023 117.568 49.6139 117.409C50.6392 116.642 51.2984 115.42 51.3775 114.141C51.4965 112.205 50.5482 110.45 48.9031 109.563C47.2586 108.676 45.2719 108.848 43.7199 110.01ZM50.7968 114.105C50.7287 115.216 50.1565 116.277 49.2663 116.943C47.8983 117.969 46.1512 118.122 44.7073 117.344C43.2638 116.564 42.4325 115.02 42.538 113.314C42.6056 112.203 43.1778 111.142 44.0686 110.475C44.2576 110.334 44.4562 110.207 44.6597 110.098C44.8258 110.009 44.9954 109.932 45.1679 109.867C46.3063 109.433 47.5647 109.502 48.6275 110.075C50.071 110.854 50.9023 112.398 50.7968 114.105ZM55.3998 109.428C55.2797 109.182 55.0006 109.062 54.7366 109.141L53.4941 109.513C53.126 108.915 52.6779 108.365 52.1607 107.876L52.7794 106.734C52.908 106.495 52.8444 106.19 52.6314 106.026C51.7786 105.365 50.8303 104.854 49.8144 104.509C49.5599 104.422 49.2708 104.536 49.1422 104.774L48.527 105.914C47.8378 105.749 47.1316 105.677 46.4268 105.701L46.0552 104.456C45.9757 104.192 45.7221 104.025 45.451 104.059C44.9298 104.125 44.4017 104.237 43.881 104.393C43.3603 104.548 42.8567 104.745 42.387 104.975C42.1424 105.086 42.0184 105.372 42.0984 105.639L42.471 106.885C41.8688 107.251 41.3181 107.699 40.833 108.216L39.6931 107.6C39.451 107.469 39.1529 107.532 38.9854 107.747C38.3257 108.595 37.814 109.541 37.4644 110.562C37.3769 110.817 37.4909 111.107 37.73 111.235L38.8728 111.85C38.7088 112.539 38.6363 113.246 38.6568 113.95L37.4154 114.322C37.1543 114.397 36.9842 114.653 37.0182 114.924C37.0848 115.456 37.1958 115.985 37.3483 116.496C37.5014 117.007 37.699 117.511 37.937 117.995C38.0581 118.239 38.3367 118.359 38.5998 118.281L39.8422 117.909C40.2113 118.509 40.6594 119.059 41.1746 119.543L40.5574 120.687C40.4279 120.926 40.4914 121.231 40.7049 121.396C41.5567 122.056 42.5045 122.567 43.5224 122.913C43.7815 123.001 44.0645 122.889 44.1951 122.647L44.8098 121.507C45.492 121.67 46.1977 121.741 46.9095 121.719L47.2821 122.965C47.3611 123.228 47.6147 123.395 47.8858 123.361C48.408 123.295 48.9356 123.183 49.4553 123.027C49.6909 122.957 49.923 122.878 50.151 122.792C50.4261 122.687 50.6952 122.57 50.9568 122.442L50.9688 122.435C51.2004 122.311 51.3134 122.036 51.2374 121.781L50.8648 120.536C51.471 120.164 52.0217 119.716 52.5033 119.205L53.6432 119.82C53.8858 119.951 54.1839 119.889 54.3509 119.673C55.0106 118.824 55.5213 117.876 55.8689 116.854C55.957 116.596 55.8449 116.313 55.6028 116.183L54.4625 115.568C54.627 114.881 54.7 114.175 54.6795 113.47L55.9214 113.099C56.184 113.021 56.3521 112.762 56.3166 112.492C56.2465 111.957 56.1345 111.428 55.983 110.921C55.8269 110.401 55.6303 109.898 55.3998 109.428ZM55.4253 111.09C55.5658 111.559 55.6709 112.051 55.7364 112.549L54.2949 112.98C54.1609 113.019 54.0803 113.142 54.0873 113.275C54.1334 114.073 54.0518 114.87 53.8433 115.641C53.8078 115.772 53.8663 115.909 53.9853 115.973L55.3037 116.707C54.9746 117.661 54.497 118.53 53.8833 119.291L52.5788 118.587C52.4598 118.522 52.3133 118.548 52.2232 118.65C51.6966 119.243 51.0748 119.748 50.3746 120.151C50.2576 120.218 50.2026 120.356 50.2406 120.486L50.6567 121.942C50.2231 122.152 49.7624 122.33 49.2873 122.472C48.7701 122.627 48.2919 122.722 47.8268 122.762L47.4001 121.336C47.3611 121.206 47.2391 121.121 47.104 121.129C46.2983 121.177 45.5015 121.097 44.7353 120.89C44.6637 120.87 44.5857 120.881 44.5222 120.914C44.4722 120.941 44.4312 120.982 44.4032 121.032L43.6694 122.351C42.7201 122.023 41.8513 121.545 41.0866 120.93L41.7928 119.621C41.8573 119.501 41.8313 119.355 41.7293 119.265C41.1306 118.734 40.6249 118.114 40.2258 117.422C40.1583 117.304 40.0202 117.249 39.8912 117.288L38.4392 117.703C38.2251 117.262 38.0451 116.801 37.9045 116.331C37.7525 115.825 37.6589 115.345 37.6174 114.869L39.0389 114.444C39.0464 114.442 39.0539 114.439 39.0614 114.436C39.1784 114.392 39.2535 114.276 39.2465 114.148C39.2 113.352 39.2815 112.555 39.49 111.777C39.5251 111.647 39.466 111.51 39.3475 111.446L38.0261 110.713C38.3572 109.762 38.8358 108.894 39.4505 108.132L40.755 108.836C40.874 108.9 41.02 108.875 41.1106 108.774C41.6448 108.171 42.2665 107.666 42.9577 107.273C43.0757 107.206 43.1317 107.068 43.0932 106.938L42.6771 105.482C43.1097 105.272 43.5694 105.094 44.0465 104.951C44.5637 104.797 45.0419 104.702 45.507 104.661L45.9332 106.087C45.9727 106.217 46.0952 106.302 46.2308 106.294C47.0245 106.243 47.8208 106.323 48.598 106.533C48.7276 106.569 48.8651 106.51 48.9296 106.391L49.6639 105.073C50.6132 105.401 51.4815 105.879 52.2467 106.494L51.5405 107.798C51.476 107.917 51.5015 108.063 51.6025 108.154C52.2037 108.69 52.7099 109.311 53.108 110.002C53.176 110.119 53.3141 110.174 53.4426 110.135L54.8941 109.721C55.1042 110.151 55.2822 110.611 55.4253 111.09Z" fill="#F0F0F0"/>
<path d="M226.127 178.215L226.676 176.382C225.779 175.838 224.97 175.18 224.265 174.425L222.587 175.33C222.271 175.501 221.881 175.42 221.663 175.138C220.726 173.932 219.999 172.583 219.504 171.128C219.389 170.791 219.536 170.422 219.852 170.251L221.529 169.346C221.282 168.335 221.175 167.299 221.211 166.26L219.384 165.713V165.714C219.036 165.606 218.82 165.277 218.867 164.923C218.966 164.16 219.126 163.408 219.341 162.686C219.564 161.944 219.843 161.227 220.17 160.559C220.327 160.239 220.692 160.082 221.036 160.185L222.864 160.732C223.404 159.845 224.063 159.038 224.826 158.323L223.917 156.643C223.749 156.331 223.832 155.934 224.11 155.718C225.323 154.778 226.672 154.052 228.118 153.56C228.45 153.446 228.828 153.596 228.995 153.908L229.9 155.585C230.916 155.336 231.954 155.231 232.991 155.272L233.538 153.44C233.641 153.095 233.973 152.877 234.327 152.922C235.067 153.016 235.819 153.176 236.56 153.397C237.301 153.618 238.016 153.897 238.688 154.227C239.014 154.376 239.166 154.747 239.062 155.092L238.514 156.924C239.403 157.46 240.212 158.117 240.925 158.883L242.602 157.977C242.918 157.806 243.307 157.888 243.526 158.168C244.464 159.374 245.193 160.721 245.691 162.173C245.805 162.506 245.656 162.884 245.343 163.053L243.662 163.957C243.908 164.973 244.015 166.01 243.979 167.047L245.807 167.594C246.154 167.697 246.369 168.027 246.325 168.381C246.23 169.137 246.072 169.889 245.855 170.617C245.636 171.346 245.355 172.063 245.018 172.749C244.86 173.068 244.496 173.225 244.153 173.122L242.324 172.575C241.783 173.463 241.125 174.27 240.364 174.979L241.272 176.663C241.441 176.975 241.357 177.373 241.079 177.588C239.866 178.528 238.517 179.254 237.07 179.746C236.732 179.862 236.364 179.715 236.193 179.399L235.288 177.722C234.284 177.967 233.248 178.072 232.199 178.034L231.651 179.868C231.548 180.212 231.217 180.429 230.862 180.385C230.121 180.292 229.369 180.132 228.629 179.91C227.889 179.689 227.173 179.41 226.502 179.081C226.494 179.077 226.486 179.073 226.478 179.069C226.174 178.906 226.027 178.552 226.127 178.215ZM235.77 177.155L236.848 179.091C238.222 178.623 239.503 177.933 240.663 176.992L239.626 175.069C239.55 174.928 239.581 174.752 239.701 174.646C240.562 173.882 241.291 172.989 241.865 171.992C241.946 171.853 242.111 171.787 242.264 171.834L244.397 172.443C244.716 171.792 244.984 171.111 245.191 170.418C245.398 169.727 245.548 169.012 245.608 168.257L243.521 167.633C243.367 167.587 243.265 167.441 243.274 167.281C243.341 166.136 243.223 164.988 242.924 163.869C242.882 163.714 242.953 163.551 243.094 163.475L245.035 162.398C244.562 161.018 243.869 159.738 242.93 158.586L241.014 159.62C240.873 159.696 240.699 159.665 240.591 159.545C239.823 158.679 238.929 157.952 237.932 157.386C237.792 157.306 237.726 157.14 237.772 156.985L238.382 154.847C237.745 154.535 237.065 154.27 236.361 154.06C235.656 153.848 234.943 153.697 234.202 153.637L233.576 155.731C233.53 155.885 233.383 155.987 233.222 155.977C232.079 155.903 230.932 156.02 229.815 156.322C229.658 156.364 229.496 156.294 229.419 156.152L228.341 154.215C226.968 154.683 225.686 155.372 224.526 156.314L225.565 158.23C225.641 158.371 225.61 158.547 225.491 158.654C224.626 159.424 223.897 160.319 223.324 161.313C223.244 161.452 223.079 161.518 222.925 161.471L220.793 160.863C220.481 161.498 220.216 162.177 220.005 162.884C219.8 163.57 219.648 164.285 219.554 165.011C219.552 165.026 219.567 165.043 219.582 165.049L221.668 165.673C221.82 165.718 221.924 165.864 221.915 166.024C221.848 167.172 221.966 168.318 222.267 169.431C222.309 169.586 222.238 169.749 222.097 169.826L220.16 170.904C220.63 172.286 221.319 173.567 222.258 174.719L224.174 173.686C224.315 173.609 224.491 173.64 224.597 173.761C225.355 174.615 226.25 175.342 227.258 175.921C227.397 176.001 227.463 176.166 227.417 176.32L226.807 178.458C227.443 178.77 228.123 179.035 228.827 179.246C229.531 179.456 230.246 179.608 230.986 179.667L231.613 177.575C231.659 177.421 231.805 177.319 231.965 177.328C233.126 177.397 234.273 177.281 235.374 176.984C235.462 176.96 235.552 176.972 235.628 177.013C235.687 177.045 235.736 177.093 235.77 177.155ZM228.423 171.885C226.973 170.8 226.041 169.072 225.929 167.263C225.761 164.522 227.102 162.039 229.431 160.783C231.759 159.527 234.57 159.769 236.769 161.416C238.219 162.502 239.151 164.23 239.263 166.038C239.431 168.779 238.089 171.262 235.761 172.518C233.755 173.6 231.39 173.569 229.367 172.487C229.042 172.314 228.727 172.112 228.423 171.885ZM229.76 161.392C227.671 162.519 226.469 164.752 226.621 167.221C226.72 168.829 227.549 170.365 228.838 171.331C230.817 172.814 233.344 173.035 235.432 171.908C237.52 170.782 238.723 168.549 238.57 166.081C238.472 164.472 237.643 162.936 236.354 161.97C236.079 161.765 235.794 161.583 235.5 161.425C233.681 160.452 231.557 160.423 229.76 161.392Z" fill="#F0F0F0"/>
<path d="M200.667 130.215C199.022 131.103 198.074 132.857 198.193 134.793C198.272 136.072 198.931 137.294 199.956 138.061C200.168 138.219 200.392 138.362 200.622 138.486C200.81 138.586 201.002 138.674 201.197 138.749C202.492 139.242 203.927 139.162 205.14 138.508C206.785 137.62 207.733 135.866 207.614 133.93C207.535 132.652 206.876 131.43 205.85 130.662C204.299 129.499 202.312 129.327 200.667 130.215ZM200.944 130.727C202.006 130.154 203.265 130.085 204.403 130.519C204.576 130.584 204.746 130.662 204.911 130.75C205.115 130.859 205.314 130.986 205.503 131.127C206.393 131.794 206.966 132.855 207.033 133.965C207.139 135.672 206.307 137.216 204.864 137.995C203.42 138.774 201.673 138.621 200.304 137.595C199.414 136.928 198.842 135.867 198.774 134.757C198.669 133.05 199.5 131.505 200.944 130.727ZM193.588 131.574C193.437 132.081 193.324 132.61 193.254 133.146C193.219 133.416 193.387 133.675 193.649 133.752L194.891 134.124C194.871 134.829 194.944 135.533 195.108 136.221L193.968 136.835C193.726 136.966 193.614 137.249 193.702 137.507C194.049 138.529 194.56 139.477 195.22 140.326C195.387 140.542 195.685 140.604 195.927 140.473L197.067 139.858C197.548 140.369 198.1 140.816 198.706 141.188L198.333 142.434C198.257 142.689 198.37 142.963 198.602 143.088L198.614 143.094C198.876 143.223 199.145 143.34 199.42 143.445C199.648 143.532 199.88 143.61 200.116 143.68C200.636 143.836 201.164 143.949 201.685 144.014C201.956 144.048 202.21 143.881 202.289 143.618L202.662 142.372C203.373 142.394 204.079 142.322 204.761 142.16L205.376 143.3C205.507 143.542 205.79 143.654 206.049 143.566C207.067 143.219 208.014 142.709 208.866 142.049C209.08 141.884 209.143 141.579 209.014 141.34L208.397 140.195C208.912 139.711 209.36 139.162 209.729 138.562L210.971 138.934C211.234 139.013 211.513 138.892 211.634 138.647C211.872 138.164 212.07 137.66 212.223 137.149C212.375 136.638 212.486 136.109 212.553 135.577C212.587 135.305 212.417 135.049 212.156 134.974L210.914 134.603C210.934 133.898 210.861 133.192 210.698 132.502L211.841 131.888C212.08 131.759 212.194 131.47 212.106 131.215C211.757 130.194 211.245 129.247 210.585 128.4C210.417 128.185 210.12 128.122 209.878 128.253L208.738 128.868C208.252 128.352 207.701 127.904 207.1 127.537L207.472 126.292C207.552 126.025 207.428 125.74 207.184 125.628C206.714 125.398 206.21 125.201 205.69 125.046C205.169 124.89 204.641 124.778 204.12 124.712C203.849 124.678 203.595 124.844 203.515 125.109L203.144 126.354C202.439 126.33 201.733 126.401 201.044 126.567L200.428 125.427C200.3 125.188 200.011 125.074 199.756 125.161C198.74 125.507 197.792 126.017 196.939 126.678C196.726 126.843 196.663 127.148 196.791 127.386L197.41 128.528C196.893 129.017 196.445 129.567 196.076 130.165L194.834 129.794C194.57 129.715 194.291 129.835 194.171 130.081C193.94 130.55 193.744 131.053 193.588 131.574ZM194.676 130.373L196.127 130.787C196.256 130.826 196.394 130.771 196.462 130.654C196.86 129.964 197.366 129.342 197.968 128.806C198.069 128.715 198.094 128.569 198.03 128.451L197.323 127.146C198.089 126.531 198.957 126.053 199.906 125.725L200.64 127.044C200.705 127.162 200.843 127.221 200.972 127.186C201.749 126.976 202.545 126.895 203.339 126.946C203.475 126.955 203.597 126.87 203.637 126.74L204.063 125.314C204.528 125.354 205.007 125.449 205.524 125.604C206.001 125.746 206.461 125.924 206.893 126.134L206.477 127.59C206.438 127.72 206.494 127.858 206.612 127.926C207.304 128.319 207.925 128.824 208.46 129.426C208.55 129.527 208.696 129.553 208.815 129.489L210.12 128.785C210.734 129.547 211.213 130.415 211.544 131.366L210.223 132.099C210.104 132.163 210.045 132.299 210.08 132.43C210.289 133.207 210.37 134.005 210.324 134.801C210.317 134.929 210.392 135.044 210.509 135.089C210.516 135.092 210.524 135.094 210.531 135.096L211.953 135.522C211.911 135.998 211.818 136.477 211.666 136.984C211.525 137.454 211.345 137.915 211.131 138.355L209.679 137.941C209.55 137.902 209.412 137.957 209.344 138.074C208.945 138.767 208.44 139.387 207.841 139.918C207.739 140.007 207.713 140.153 207.777 140.274L208.484 141.582C207.718 142.198 206.85 142.675 205.901 143.003L205.167 141.685C205.139 141.634 205.098 141.594 205.048 141.567C204.985 141.534 204.906 141.523 204.835 141.543C204.069 141.75 203.272 141.83 202.466 141.783C202.331 141.775 202.21 141.86 202.17 141.989L201.743 143.415C201.278 143.375 200.8 143.28 200.283 143.125C199.808 142.983 199.347 142.805 198.913 142.595L199.33 141.139C199.368 141.01 199.313 140.872 199.195 140.804C198.495 140.402 197.874 139.897 197.347 139.303C197.257 139.202 197.11 139.176 196.991 139.24L195.687 139.944C195.073 139.183 194.595 138.314 194.266 137.361L195.585 136.626C195.704 136.562 195.762 136.425 195.727 136.294C195.518 135.522 195.437 134.726 195.483 133.928C195.49 133.795 195.409 133.672 195.275 133.632L193.834 133.201C193.9 132.703 194.004 132.212 194.145 131.742C194.288 131.263 194.467 130.802 194.676 130.373Z" fill="#F0F0F0"/>
<path d="M237.032 110.342C235.387 111.23 234.439 112.984 234.558 114.92C234.637 116.199 235.296 117.421 236.321 118.188C236.533 118.347 236.757 118.49 236.987 118.613C237.175 118.714 237.367 118.801 237.562 118.876C238.857 119.37 240.291 119.29 241.505 118.635C243.15 117.747 244.098 115.993 243.979 114.057C243.9 112.779 243.241 111.557 242.216 110.789C240.664 109.627 238.677 109.455 237.032 110.342ZM237.309 110.854C238.371 110.281 239.63 110.213 240.768 110.646C240.941 110.712 241.111 110.789 241.276 110.878C241.48 110.986 241.678 111.113 241.868 111.255C242.758 111.922 243.33 112.983 243.398 114.093C243.504 115.8 242.672 117.344 241.229 118.123C239.785 118.902 238.038 118.749 236.669 117.723C235.779 117.056 235.207 115.995 235.139 114.885C235.034 113.177 235.865 111.633 237.309 110.854ZM229.953 111.702C229.802 112.209 229.689 112.738 229.619 113.274C229.584 113.544 229.752 113.803 230.014 113.88L231.256 114.251C231.236 114.957 231.309 115.661 231.473 116.349L230.333 116.964C230.091 117.094 229.979 117.377 230.067 117.636C230.414 118.657 230.925 119.606 231.585 120.455C231.752 120.67 232.05 120.733 232.292 120.602L233.432 119.986C233.913 120.498 234.465 120.945 235.071 121.317L234.698 122.563C234.622 122.817 234.735 123.092 234.967 123.216L234.979 123.223C235.241 123.351 235.51 123.468 235.785 123.573C236.013 123.66 236.245 123.739 236.481 123.809C237.001 123.965 237.529 124.077 238.05 124.143C238.321 124.177 238.575 124.01 238.654 123.746L239.027 122.5C239.738 122.522 240.444 122.451 241.126 122.288L241.741 123.428C241.872 123.671 242.155 123.782 242.414 123.695C243.432 123.348 244.379 122.837 245.231 122.177C245.445 122.012 245.508 121.707 245.379 121.468L244.761 120.324C245.277 119.84 245.725 119.29 246.094 118.69L247.336 119.062C247.599 119.141 247.878 119.021 247.999 118.776C248.237 118.292 248.434 117.788 248.587 117.277C248.74 116.766 248.851 116.237 248.917 115.705C248.951 115.434 248.781 115.178 248.52 115.103L247.278 114.731C247.299 114.027 247.226 113.321 247.062 112.631L248.205 112.017C248.444 111.888 248.559 111.598 248.471 111.343C248.121 110.323 247.609 109.376 246.95 108.528C246.782 108.313 246.484 108.251 246.242 108.382L245.102 108.997C244.617 108.48 244.066 108.032 243.464 107.666L243.837 106.42C243.917 106.154 243.793 105.868 243.548 105.757C243.078 105.526 242.575 105.33 242.054 105.174C241.533 105.019 241.005 104.906 240.484 104.84C240.213 104.806 239.959 104.973 239.88 105.237L239.508 106.482C238.803 106.458 238.097 106.53 237.408 106.695L236.793 105.556C236.664 105.317 236.375 105.203 236.121 105.29C235.104 105.636 234.156 106.146 233.303 106.807C233.09 106.972 233.027 107.277 233.155 107.515L233.774 108.657C233.257 109.146 232.809 109.696 232.44 110.294L231.198 109.922C230.934 109.843 230.655 109.963 230.535 110.209C230.305 110.677 230.109 111.18 229.953 111.702ZM231.04 110.5L232.492 110.914C232.62 110.953 232.759 110.898 232.827 110.781C233.225 110.091 233.731 109.469 234.332 108.933C234.433 108.842 234.459 108.696 234.394 108.577L233.688 107.273C234.453 106.657 235.321 106.18 236.271 105.852L237.005 107.17C237.069 107.289 237.207 107.348 237.337 107.312C238.113 107.102 238.91 107.022 239.704 107.073C239.839 107.081 239.962 106.996 240.001 106.866L240.428 105.44C240.893 105.481 241.371 105.576 241.888 105.73C242.365 105.873 242.825 106.051 243.257 106.26L242.841 107.716C242.803 107.846 242.858 107.985 242.977 108.052C243.668 108.445 244.29 108.95 244.824 109.552C244.915 109.653 245.061 109.679 245.18 109.615L246.484 108.911C247.099 109.673 247.577 110.541 247.908 111.492L246.587 112.225C246.469 112.289 246.41 112.425 246.445 112.556C246.653 113.333 246.735 114.131 246.688 114.927C246.681 115.055 246.756 115.17 246.873 115.215C246.881 115.218 246.888 115.22 246.896 115.222L248.317 115.648C248.276 116.124 248.182 116.603 248.03 117.11C247.889 117.58 247.709 118.041 247.495 118.481L246.043 118.067C245.914 118.028 245.776 118.083 245.709 118.2C245.31 118.893 244.804 119.513 244.205 120.044C244.103 120.133 244.077 120.279 244.142 120.399L244.848 121.708C244.083 122.324 243.214 122.801 242.265 123.129L241.531 121.811C241.504 121.76 241.462 121.72 241.412 121.693C241.349 121.66 241.271 121.649 241.199 121.668C240.434 121.875 239.636 121.956 238.831 121.908C238.695 121.9 238.574 121.985 238.534 122.115L238.108 123.541C237.643 123.501 237.164 123.405 236.647 123.251C236.172 123.108 235.711 122.931 235.278 122.721L235.694 121.265C235.733 121.135 235.677 120.997 235.56 120.93C234.86 120.527 234.238 120.022 233.711 119.429C233.621 119.327 233.475 119.301 233.356 119.366L232.051 120.069C231.438 119.309 230.96 118.44 230.631 117.486L231.949 116.752C232.068 116.687 232.127 116.551 232.091 116.42C231.883 115.648 231.801 114.852 231.847 114.053C231.855 113.92 231.774 113.797 231.64 113.758L230.199 113.327C230.265 112.829 230.369 112.337 230.51 111.868C230.653 111.39 230.832 110.929 231.04 110.5Z" fill="#F0F0F0"/>
<path d="M106.281 280.734C112.312 282.863 118.085 285.72 123.435 289.223C129.449 293.159 134.95 297.918 141.353 301.184C149.674 305.429 159.217 306.95 168.546 306.491C173.831 306.231 179.575 305.087 182.941 301.005C183.803 299.96 184.488 298.693 184.501 297.338C184.52 295.349 183.121 293.646 181.676 292.28C173.963 284.991 163.226 282.008 152.873 279.68C142.519 277.352 136.305 274.428 126.13 269.158C121.775 266.903 117.483 264.478 113.096 262.352C113.06 262.335 113.025 262.318 112.989 262.301C110.761 261.227 109.165 259.81 106.127 258.55C102.456 257.028 99.5703 256.125 95.62 255.684C91.6692 255.242 88.0395 255.069 84.3728 256.603C83.429 256.997 81.8004 257.927 81.0857 258.891C80.3705 259.854 80.0023 261.045 80.0319 261.911C80.0919 263.673 80.8241 265.366 81.864 266.791C82.9038 268.216 84.2412 269.397 85.6297 270.484C91.6847 275.226 99.0811 278.192 106.281 280.734Z" fill="#E0E0E0"/>
<path d="M57.1388 257.128L32.8629 243.112C31.9621 242.592 31.9621 241.749 32.8629 241.229L57.1383 227.214C58.0391 226.693 59.4991 226.693 60.3999 227.214L84.6759 241.229C85.5767 241.749 85.5767 242.592 84.6759 243.112L60.4004 257.128C59.4996 257.648 58.0396 257.648 57.1388 257.128Z" fill="#E0E0E0"/>
<path d="M216.671 285.03L192.395 271.015C191.494 270.494 191.494 269.652 192.395 269.131L216.671 255.116C217.572 254.596 219.032 254.596 219.932 255.116L244.208 269.131C245.109 269.652 245.109 270.494 244.208 271.015L219.933 285.03C219.032 285.55 217.572 285.55 216.671 285.03Z" fill="#E0E0E0"/>
<path d="M81.7723 238.807L60.2147 226.36C59.8136 226.126 59.2919 226.012 58.7702 226.012C58.2486 226.012 57.7199 226.126 57.3187 226.36L35.7682 238.807C35.367 239.041 35.173 239.342 35.173 239.643V241.215C35.173 241.516 35.367 241.817 35.7682 242.051L57.3187 254.492C57.7199 254.726 58.2486 254.84 58.7702 254.84C59.2919 254.84 59.8136 254.726 60.2147 254.492L81.7723 242.051C82.1739 241.817 82.3675 241.516 82.3675 241.215V239.643C82.3675 239.342 82.1739 239.041 81.7723 238.807Z" fill="#1E8DCC"/>
<path opacity="0.1" d="M82.3671 239.643V241.215C82.3671 241.516 82.1731 241.816 81.772 242.051L60.2144 254.492C59.8132 254.726 59.2916 254.839 58.7699 254.839V226.012C59.2916 226.012 59.8132 226.125 60.2144 226.359L81.772 238.806C82.1736 239.041 82.3671 239.342 82.3671 239.643Z" fill="black"/>
<path opacity="0.3" d="M58.7702 226.012V254.84C58.2486 254.84 57.7199 254.726 57.3187 254.492L35.7682 242.051C35.367 241.817 35.173 241.516 35.173 241.215V239.643C35.173 239.342 35.367 239.041 35.7682 238.807L57.3187 226.36C57.7204 226.125 58.2486 226.012 58.7702 226.012Z" fill="black"/>
<path d="M57.322 252.925L35.7659 240.48C34.9661 240.018 34.9661 239.269 35.7659 238.808L57.322 226.362C58.1217 225.9 59.4182 225.9 60.2179 226.362L81.774 238.808C82.5738 239.269 82.5738 240.018 81.774 240.48L60.2179 252.925C59.4182 253.387 58.1217 253.387 57.322 252.925Z" fill="#1E8DCC"/>
<path opacity="0.5" d="M57.322 252.925L35.7659 240.48C34.9661 240.018 34.9661 239.269 35.7659 238.808L57.322 226.362C58.1217 225.9 59.4182 225.9 60.2179 226.362L81.774 238.808C82.5738 239.269 82.5738 240.018 81.774 240.48L60.2179 252.925C59.4182 253.387 58.1217 253.387 57.322 252.925Z" fill="white"/>
<path opacity="0.05" d="M58.7704 226.016C58.2457 226.016 57.7216 226.131 57.3214 226.362L35.7653 238.808C34.9656 239.269 34.9656 240.018 35.7653 240.48L57.3214 252.925C57.7216 253.156 58.2457 253.271 58.7699 253.271L58.7704 226.016Z" fill="black"/>
<path d="M72.0758 238.075H72.0813L62.5431 209.424C62.5416 209.419 62.5396 209.414 62.5381 209.409L62.5291 209.382H62.5241C62.3761 208.975 62.0335 208.587 61.4868 208.271C59.9863 207.405 57.5535 207.405 56.053 208.271C55.5063 208.587 55.1637 208.975 55.0157 209.382H55.0102L54.9997 209.413C54.9987 209.416 54.9982 209.418 54.9972 209.421L45.4595 238.076H45.4635C44.5862 240.567 45.8161 243.257 49.1637 245.19C54.469 248.253 63.0703 248.253 68.3756 245.19C71.7232 243.257 72.9531 240.567 72.0758 238.075Z" fill="#1E8DCC"/>
<path d="M65.278 217.64L65.2675 217.61L63.9116 213.537C64.1367 214.23 63.9366 214.958 63.3189 215.586C63.0913 215.818 62.8122 216.037 62.4706 216.234C60.4264 217.414 57.1123 217.414 55.0682 216.234C54.7266 216.036 54.447 215.817 54.2199 215.586C53.5997 214.956 53.4001 214.224 53.6287 213.53L52.2693 217.614L52.2618 217.636C52.0367 218.318 52.1402 219.027 52.5614 219.684C52.883 220.185 53.3861 220.657 54.0844 221.06C54.578 221.345 55.1417 221.558 55.7299 221.735C57.637 222.306 59.9018 222.306 61.8094 221.735C62.3976 221.558 62.9613 221.345 63.4549 221.06C64.1532 220.657 64.6563 220.185 64.9779 219.684C65.3976 219.028 65.5011 218.321 65.278 217.64Z" fill="#FAFAFA"/>
<path d="M70.7428 234.055L70.7338 234.029L69.3764 229.952C69.6005 230.627 69.6185 231.32 69.4524 232C69.2793 232.712 68.9022 233.411 68.3025 234.06C67.8124 234.591 67.1822 235.09 66.4069 235.538C62.189 237.973 55.3498 237.973 51.1319 235.538C50.3566 235.09 49.7264 234.591 49.2363 234.06C48.6366 233.41 48.2594 232.712 48.0864 232C47.9208 231.321 47.9388 230.63 48.1614 229.956L46.8075 234.022L46.7945 234.062C46.5714 234.739 46.5234 235.43 46.6454 236.113C46.923 237.665 48.0879 239.174 50.1481 240.364C54.9096 243.113 62.6297 243.113 67.3912 240.364C69.4514 239.175 70.6163 237.665 70.8934 236.113C71.0164 235.427 70.9679 234.734 70.7428 234.055Z" fill="#FAFAFA"/>
<path d="M68.0104 225.848L68.0009 225.82L66.644 221.744C66.8675 222.422 66.82 223.123 66.5154 223.792C66.1738 224.543 65.5051 225.253 64.4998 225.847C64.4783 225.86 64.4603 225.874 64.4382 225.886C61.3072 227.694 56.2305 227.694 53.1 225.886C53.078 225.874 53.06 225.86 53.039 225.847C52.0342 225.254 51.365 224.543 51.0233 223.792C50.7187 223.122 50.6712 222.422 50.8948 221.743L49.5383 225.818L49.5278 225.849C49.3038 226.529 49.3043 227.228 49.5318 227.908C49.7734 228.628 50.2756 229.324 51.0248 229.95C51.3444 230.218 51.7036 230.474 52.1157 230.712C53.168 231.32 54.4104 231.748 55.7299 232.007C57.6985 232.394 59.8397 232.394 61.8084 232.007C63.1278 231.748 64.3702 231.32 65.4226 230.712C65.8347 230.474 66.1933 230.218 66.5129 229.95C67.2622 229.324 67.7648 228.628 68.0059 227.908C68.235 227.228 68.235 226.528 68.0104 225.848Z" fill="#FAFAFA"/>
<path opacity="0.1" d="M58.7694 207.622C57.7861 207.622 56.8028 207.838 56.0525 208.271C55.5058 208.587 55.1632 208.975 55.0152 209.382H55.0097L54.9992 209.413C54.9982 209.416 54.9977 209.418 54.9967 209.421L45.459 238.076H45.463C44.5858 240.567 45.8157 243.257 49.1633 245.19C51.8156 246.722 55.2923 247.488 58.7689 247.488C58.7419 247.484 58.7149 247.479 58.6874 247.475C54.384 246.785 51.484 242.679 52.0847 238.362L56.052 209.841L58.7694 207.622Z" fill="black"/>
<path d="M56.0525 211.408C54.552 210.542 54.552 209.138 56.0525 208.271C57.553 207.405 59.9858 207.405 61.4863 208.271C62.9868 209.138 62.9868 210.542 61.4863 211.408C59.9858 212.275 57.553 212.275 56.0525 211.408Z" fill="#1E8DCC"/>
<path opacity="0.5" d="M56.0525 211.408C54.552 210.542 54.552 209.138 56.0525 208.271C57.553 207.405 59.9858 207.405 61.4863 208.271C62.9868 209.138 62.9868 210.542 61.4863 211.408C59.9858 212.275 57.553 212.275 56.0525 211.408Z" fill="white"/>
<path d="M241.305 266.709L219.748 254.262C219.346 254.028 218.825 253.914 218.303 253.914C217.781 253.914 217.253 254.027 216.852 254.262L195.301 266.709C194.9 266.943 194.706 267.244 194.706 267.545V269.117C194.706 269.418 194.9 269.719 195.301 269.954L216.852 282.394C217.253 282.628 217.781 282.742 218.303 282.742C218.825 282.742 219.346 282.628 219.748 282.394L241.305 269.954C241.706 269.72 241.9 269.418 241.9 269.117V267.545C241.9 267.244 241.706 266.943 241.305 266.709Z" fill="#1E8DCC"/>
<path opacity="0.1" d="M241.9 267.545V269.117C241.9 269.418 241.705 269.719 241.304 269.954L219.747 282.394C219.346 282.628 218.824 282.742 218.303 282.742V253.914C218.824 253.914 219.346 254.028 219.747 254.262L241.304 266.71C241.706 266.943 241.9 267.244 241.9 267.545Z" fill="black"/>
<path opacity="0.3" d="M218.303 253.914V282.742C217.781 282.742 217.252 282.628 216.851 282.394L195.301 269.953C194.899 269.719 194.705 269.418 194.705 269.117V267.545C194.705 267.244 194.899 266.943 195.301 266.709L216.851 254.261C217.253 254.027 217.781 253.914 218.303 253.914Z" fill="black"/>
<path d="M216.854 280.828L195.298 268.382C194.499 267.921 194.499 267.172 195.298 266.71L216.854 254.265C217.654 253.803 218.951 253.803 219.75 254.265L241.306 266.71C242.106 267.172 242.106 267.921 241.306 268.382L219.75 280.828C218.951 281.289 217.654 281.289 216.854 280.828Z" fill="#1E8DCC"/>
<path opacity="0.5" d="M216.854 280.828L195.298 268.382C194.499 267.921 194.499 267.172 195.298 266.71L216.854 254.265C217.654 253.803 218.951 253.803 219.75 254.265L241.306 266.71C242.106 267.172 242.106 267.921 241.306 268.382L219.75 280.828C218.951 281.289 217.654 281.289 216.854 280.828Z" fill="white"/>
<path opacity="0.05" d="M218.303 253.918C217.778 253.918 217.254 254.034 216.854 254.265L195.298 266.71C194.498 267.172 194.498 267.921 195.298 268.382L216.854 280.827C217.254 281.058 217.778 281.174 218.302 281.174L218.303 253.918Z" fill="black"/>
<path d="M231.608 265.977H231.614L222.076 237.326C222.074 237.321 222.072 237.316 222.071 237.311L222.062 237.284H222.057C221.908 236.877 221.566 236.49 221.019 236.174C219.519 235.307 217.086 235.307 215.585 236.174C215.039 236.489 214.696 236.877 214.548 237.284H214.543L214.532 237.315C214.531 237.318 214.53 237.32 214.53 237.323L204.991 265.978H204.996C204.119 268.47 205.349 271.16 208.696 273.093C214.001 276.156 222.603 276.156 227.908 273.093C231.256 271.159 232.485 268.469 231.608 265.977Z" fill="#1E8DCC"/>
<path d="M224.81 245.543L224.8 245.513L223.444 241.44C223.669 242.132 223.469 242.861 222.851 243.489C222.624 243.721 222.345 243.94 222.003 244.137C219.959 245.317 216.645 245.317 214.601 244.137C214.259 243.94 213.979 243.721 213.752 243.489C213.132 242.858 212.932 242.127 213.161 241.433L211.801 245.517L211.794 245.539C211.569 246.22 211.673 246.929 212.094 247.586C212.415 248.088 212.919 248.56 213.617 248.963C214.11 249.248 214.674 249.461 215.262 249.637C217.169 250.209 219.434 250.209 221.342 249.637C221.93 249.461 222.494 249.247 222.987 248.963C223.686 248.56 224.189 248.088 224.51 247.586C224.93 246.931 225.034 246.223 224.81 245.543Z" fill="#FAFAFA"/>
<path d="M230.275 261.957L230.266 261.931L228.909 257.854C229.133 258.529 229.151 259.222 228.985 259.902C228.812 260.614 228.435 261.312 227.835 261.962C227.345 262.493 226.715 262.992 225.939 263.44C221.721 265.875 214.882 265.875 210.664 263.44C209.889 262.992 209.259 262.493 208.769 261.962C208.169 261.312 207.792 260.614 207.619 259.902C207.453 259.223 207.471 258.532 207.694 257.858L206.34 261.924L206.327 261.964C206.104 262.641 206.056 263.332 206.178 264.015C206.455 265.567 207.62 267.077 209.68 268.266C214.442 271.015 222.162 271.015 226.924 268.266C228.984 267.077 230.149 265.567 230.426 264.015C230.549 263.329 230.5 262.636 230.275 261.957Z" fill="#FAFAFA"/>
<path d="M227.543 253.75L227.533 253.722L226.177 249.646C226.4 250.325 226.353 251.025 226.048 251.695C225.707 252.446 225.038 253.156 224.033 253.75C224.011 253.763 223.994 253.776 223.971 253.789C220.84 255.596 215.764 255.596 212.633 253.789C212.611 253.776 212.593 253.762 212.572 253.75C211.567 253.156 210.898 252.446 210.556 251.695C210.252 251.025 210.204 250.324 210.428 249.645L209.071 253.721L209.061 253.752C208.837 254.431 208.838 255.131 209.065 255.81C209.307 256.531 209.809 257.226 210.558 257.853C210.878 258.12 211.237 258.377 211.649 258.615C212.701 259.223 213.944 259.65 215.263 259.91C217.232 260.297 219.373 260.297 221.342 259.91C222.661 259.65 223.904 259.223 224.956 258.615C225.368 258.377 225.727 258.12 226.046 257.853C226.796 257.226 227.298 256.531 227.539 255.81C227.767 255.13 227.767 254.43 227.543 253.75Z" fill="#FAFAFA"/>
<path opacity="0.1" d="M218.302 235.524C217.319 235.524 216.335 235.74 215.585 236.174C215.038 236.489 214.696 236.877 214.548 237.284H214.542L214.532 237.315C214.531 237.318 214.53 237.32 214.529 237.323L204.991 265.978H204.995C204.118 268.47 205.348 271.16 208.696 273.093C211.348 274.624 214.825 275.39 218.301 275.39C218.274 275.386 218.247 275.381 218.22 275.377C213.916 274.687 211.016 270.58 211.617 266.263L215.584 237.743L218.302 235.524Z" fill="black"/>
<path d="M215.585 239.311C214.084 238.445 214.084 237.04 215.585 236.174C217.085 235.308 219.518 235.308 221.019 236.174C222.519 237.04 222.519 238.445 221.019 239.311C219.519 240.177 217.085 240.177 215.585 239.311Z" fill="#1E8DCC"/>
<path opacity="0.5" d="M215.585 239.311C214.084 238.445 214.084 237.04 215.585 236.174C217.085 235.308 219.518 235.308 221.019 236.174C222.519 237.04 222.519 238.445 221.019 239.311C219.519 240.177 217.085 240.177 215.585 239.311Z" fill="white"/>
<path d="M90.6783 258.104C90.5273 257.452 90.4613 256.783 90.5098 256.101C90.6298 254.406 90.9814 252.337 91.8417 250.911C92.8195 249.289 93.9394 247.719 94.6461 245.936C95.4069 244.015 95.9171 242.179 96.2112 240.111C96.4387 238.515 96.4362 236.73 97.0439 235.225C98.8865 230.66 103.713 231.347 106.485 230.971L116.657 223.928L119.775 238.016C119.775 238.016 114.345 239.83 112.755 240.622C110.649 241.67 108.626 244.334 107.304 246.24C105.624 248.662 103.559 251.169 103.416 254.284C103.338 255.976 103.643 257.658 103.904 259.329C103.978 259.805 104.049 260.29 103.981 260.767C103.793 262.081 102.64 262.964 101.584 263.694C99.8729 264.876 97.8252 266.11 95.8956 265.391C94.7962 264.98 93.9869 264.006 93.2647 263.042C92.1553 261.563 91.094 259.897 90.6783 258.104Z" fill="#B17117" fill-opacity="0.81"/>
<path d="M102.947 266.407C102.283 267.251 101.315 267.796 100.275 267.823C99.6978 267.838 99.0011 267.783 98.2083 267.583C96.2467 267.089 94.7357 266.083 94.7357 266.083C91.3556 264.031 89.0663 260.536 88.8613 257.564C88.6727 254.837 90.8384 249.193 91.4281 247.605C92.0673 245.883 92.1984 243.989 92.1213 242.157C92.0418 240.271 92.1003 238.384 92.3839 236.52C92.495 235.789 92.6165 235.043 92.9601 234.398C93.3938 233.582 94.173 233.026 95.0118 232.757C95.3234 232.658 96.3312 232.677 96.4953 232.341C96.4838 232.364 94.9593 235.487 95.0843 237.526C95.2098 239.573 94.7527 248.415 93.9794 250.7C93.2062 252.986 93.5438 257.172 95.2759 259.932C97.0084 262.691 103.614 265.56 103.614 265.56L102.947 266.407Z" fill="#263238"/>
<path d="M93.4578 245.13C93.3047 246.631 92.8256 248.122 92.2699 249.509C90.9039 252.921 89.9791 256.971 91.6187 260.485C92.2779 261.897 93.3828 263.039 94.6237 263.918C95.8646 264.797 97.219 265.502 98.6275 266.032C100.647 266.792 102.6 266.608 102.946 266.406C103.989 265.669 104.585 264.558 104.622 263.178C104.683 260.924 104.25 258.67 104.293 256.416C104.315 255.289 104.19 254.122 104.495 253.025C105.359 249.924 107.43 247.008 108.937 244.205C109.211 243.696 109.494 243.132 109.397 242.557C109.304 242.009 108.891 241.593 108.49 241.232C107.671 240.495 106.808 239.814 105.906 239.194C105.569 238.961 105.171 238.729 104.784 238.847C104.384 238.969 104.17 239.411 103.953 239.785C103.736 240.159 103.377 240.545 102.97 240.447C103.164 239.85 103.361 239.233 103.318 238.603C103.204 236.91 100.999 236.092 101.688 234.1C101.943 233.363 102.598 232.872 103.239 232.47C104.171 231.885 105.47 231.374 106.485 230.97C106.493 230.488 106.2 230.327 105.956 230.329C105.418 230.335 104.882 230.389 104.345 230.442C103.14 230.563 101.935 230.683 100.729 230.805C99.5903 230.92 98.5554 231.144 97.4341 231.438C96.9274 231.571 96.4107 231.709 95.9731 232.007C95.2794 232.481 94.8727 233.297 94.5666 234.104C93.8829 235.908 93.5588 237.841 93.4598 239.774C93.3682 241.565 93.6383 243.363 93.4578 245.13Z" fill="#37474F"/>
<path d="M164.005 176.991C164.005 176.991 164.666 186.441 164.19 197.734C164.039 201.323 163.47 209.443 161.239 214.38C156.78 224.247 145.232 228.19 143.053 229.164C133.149 233.591 119.281 238.944 118.104 239.402C118.104 239.402 109.276 233.088 110.791 226.739C118.346 220.506 126.435 213.026 133.872 211.797L140.239 177.579L164.005 176.991Z" fill="#37474F"/>
<path d="M117.839 239.933L123.162 237.759C123.162 237.759 119.696 236.1 117.272 231.485C114.847 226.87 115.551 222.359 115.551 222.359L110.179 226.669C110.179 226.669 109.007 229.733 111.687 234.661C114.368 239.589 117.839 239.933 117.839 239.933Z" fill="#455A64"/>
<path d="M159.058 185.836L138.286 189.542L137.826 190.548L133.872 211.797C130.54 212.347 126.844 214.063 123.312 216.758L123.503 217.129L123.502 217.13L131.61 234.097C135.76 232.539 139.822 230.612 143.053 229.165C144.691 228.431 152.298 225.703 157.326 220.189L151.949 196.391C151.949 196.391 158.855 193.878 159.058 185.836Z" fill="#263238"/>
<path d="M165.447 278.581C164.516 278.648 164.471 277.366 164.079 274.348C163.649 271.03 161.99 258.044 161.99 258.044L147.116 264.216C147.116 264.216 150.974 274.907 152.187 277.991C153.534 281.416 155.418 286.116 155.726 288.783C156.033 291.45 156.174 298.889 159.354 300.223C162.534 301.557 165.485 300.034 167.586 298.588C169.687 297.143 172.113 292.097 174.436 289.542C176.759 286.986 178.717 285.566 180.51 282.926C182.303 280.285 182.169 273.748 179.743 272.39C177.316 271.033 173.868 272.586 171.839 273.867C169.81 275.148 167.173 278.456 165.447 278.581Z" fill="#B17117" fill-opacity="0.81"/>
<path d="M121.384 175.896C120.429 178.982 119.096 183.148 118.779 188.844C118.366 196.272 120.821 201.675 123.119 206.188C127.567 214.929 128.539 217.354 138.403 237.186C138.427 241.638 139.229 248.402 142.324 256.754C146.173 267.136 150.197 276.589 150.197 276.589C150.197 276.589 155.933 269.562 164.666 270.528C164.209 265.413 160.153 240.739 158.734 233.542C156.967 224.581 149.371 195.092 149.371 195.092C149.371 195.092 162.153 191.373 164.666 177.021L121.384 175.896Z" fill="#37474F"/>
<path d="M148.44 272.367L150.531 277.61C150.531 277.61 152.589 274.366 157.458 272.505C162.328 270.644 164.855 271.761 164.855 271.761L164.037 265.604C164.037 265.604 160.176 264.507 154.965 266.583C149.755 268.66 148.44 272.367 148.44 272.367Z" fill="#455A64"/>
<path d="M180.086 272.065C178.669 270.646 176.412 270.669 173.417 272.239C169.839 274.114 168.099 276.3 168.097 276.302C167.637 276.878 167.183 277.313 166.408 277.049C166.155 276.963 165.931 276.804 165.693 276.677C164.017 275.78 161.99 276.549 160.323 277.464C160.154 277.557 159.978 277.659 159.877 277.829C159.587 278.317 160.083 278.897 160.538 279.216C160.989 279.532 161.36 279.919 161.689 280.378C161.267 280.269 160.844 280.16 160.422 280.051C160.165 279.985 159.897 279.919 159.639 279.977C159.173 280.081 158.872 280.549 158.651 280.993C158.361 281.579 158.122 282.194 157.939 282.826C157.766 283.428 157.625 284.08 157.193 284.515C156.778 284.934 156.132 285.065 155.588 284.869C155.044 284.674 154.477 284.174 154.318 283.593C154.279 283.638 154.24 283.677 154.189 283.939C154.155 284.113 154.161 284.276 154.199 284.444C154.309 284.917 154.616 285.311 154.766 285.769C155.222 287.157 155.372 288.687 155.492 290.139C155.816 294.044 156.247 296.176 156.925 298.15L172.539 282.276L171.505 280.886C174.992 278.652 180.086 272.065 180.086 272.065Z" fill="#37474F"/>
<path d="M182.249 274.805C182.021 273.701 181.624 273.022 181.106 272.67C180.908 272.535 180.22 272.155 180.087 272.065C178.325 270.861 175.165 273.449 172.501 275.99C169.398 278.949 166.53 284.89 164.02 288.913C161.51 292.936 158.394 294.483 157.364 296.256C156.634 297.515 156.829 298.9 157.662 299.857C157.822 300.041 158.412 300.619 158.529 300.737C159.352 301.567 160.811 301.905 162.534 301.556C166.013 300.853 168.512 299.691 171.388 295.383C174.264 291.076 175.782 288.843 179.139 286.078C182.497 283.312 182.966 278.274 182.249 274.805Z" fill="#37474F"/>
<path d="M182.249 274.805C181.244 269.943 176.966 273.315 173.521 276.601C170.418 279.56 167.55 285.501 165.04 289.524C162.53 293.547 159.337 295.047 158.384 296.867C156.652 300.176 159.057 302.26 162.535 301.556C166.013 300.853 168.513 299.691 171.389 295.383C174.265 291.076 175.783 288.844 179.139 286.078C182.497 283.312 182.966 278.274 182.249 274.805Z" fill="#263238"/>
<path d="M206.244 228.139L204.254 212.179L222.578 198.315L222.737 215.662L206.244 228.139Z" fill="#263238"/>
<path d="M206.244 228.139L174.492 214.732L170.385 197.877L204.254 212.179L206.244 228.139Z" fill="#37474F"/>
<path d="M223.387 194.741C223.354 194.477 223.147 194.235 222.773 194.077L189.494 180.026C188.747 179.71 187.616 179.851 186.969 180.341L169.156 193.817C168.832 194.062 168.691 194.347 168.724 194.611C168.757 194.875 169.261 198.908 169.292 199.171C169.324 199.436 169.531 199.68 169.907 199.839L203.185 213.89C203.933 214.206 205.064 214.065 205.711 213.575L223.525 200.099C223.848 199.854 223.99 199.569 223.957 199.305C223.923 199.041 223.42 195.005 223.387 194.741Z" fill="#1E8DCC"/>
<path opacity="0.2" d="M222.773 194.077L200.842 184.817L204.485 214.035C204.942 213.978 205.387 213.821 205.711 213.576L223.524 200.1C223.848 199.855 223.989 199.569 223.956 199.305C223.923 199.041 223.42 195.005 223.387 194.741C223.354 194.477 223.146 194.235 222.773 194.077Z" fill="black"/>
<path opacity="0.1" d="M200.842 184.817L189.494 180.026C188.747 179.71 187.616 179.851 186.969 180.341L169.156 193.817C168.832 194.062 168.691 194.347 168.724 194.611C168.757 194.875 169.261 198.908 169.292 199.171C169.324 199.436 169.531 199.68 169.907 199.839L203.185 213.89C203.56 214.048 204.029 214.092 204.486 214.035L200.842 184.817Z" fill="black"/>
<path d="M205.141 209.012L222.954 195.536C223.602 195.046 223.521 194.393 222.772 194.077L189.494 180.026C188.746 179.71 187.615 179.851 186.968 180.341L169.155 193.817C168.508 194.306 168.589 194.959 169.337 195.275L202.616 209.327C203.363 209.642 204.494 209.501 205.141 209.012Z" fill="#1E8DCC"/>
<path opacity="0.1" d="M205.141 209.012L222.954 195.536C223.602 195.046 223.521 194.393 222.772 194.077L189.494 180.026C188.746 179.71 187.615 179.851 186.968 180.341L169.155 193.817C168.508 194.306 168.589 194.959 169.337 195.275L202.616 209.327C203.363 209.642 204.494 209.501 205.141 209.012Z" fill="white"/>
<path opacity="0.2" d="M174.966 194.411C174.46 194.794 174.554 195.318 175.178 195.581L198.324 205.354C198.947 205.617 199.862 205.52 200.368 205.137C200.874 204.754 200.779 204.23 200.156 203.967L177.011 194.194C176.388 193.932 175.472 194.029 174.966 194.411Z" fill="black"/>
<path opacity="0.2" d="M198.323 205.354C198.946 205.617 199.862 205.52 200.368 205.137C200.406 205.108 200.433 205.077 200.464 205.048C200.408 205.012 200.347 204.979 200.278 204.949L177.133 195.177C176.51 194.913 175.595 195.011 175.089 195.393C175.051 195.422 175.023 195.453 174.992 195.483C175.048 195.518 175.109 195.552 175.178 195.581L198.323 205.354Z" fill="black"/>
<path opacity="0.2" d="M189.624 183.321C189.118 183.703 189.213 184.227 189.836 184.49L212.982 194.263C213.605 194.526 214.521 194.429 215.026 194.046C215.532 193.664 215.437 193.139 214.814 192.876L191.669 183.104C191.046 182.841 190.131 182.938 189.624 183.321Z" fill="black"/>
<path opacity="0.2" d="M212.982 194.263C213.605 194.526 214.521 194.429 215.026 194.046C215.064 194.017 215.092 193.986 215.123 193.956C215.066 193.921 215.006 193.887 214.936 193.858L191.792 184.085C191.168 183.822 190.253 183.919 189.747 184.301C189.709 184.33 189.681 184.361 189.65 184.391C189.706 184.426 189.766 184.46 189.836 184.489L212.982 194.263Z" fill="black"/>
<path opacity="0.2" d="M211.224 195.681C211.808 195.927 211.845 196.458 211.306 196.866L204.092 202.318C203.553 202.727 202.642 202.857 202.057 202.61C201.473 202.363 201.436 201.832 201.975 201.424L209.188 195.972C209.728 195.565 210.639 195.434 211.224 195.681Z" fill="black"/>
<path opacity="0.2" d="M204.092 202.318C203.552 202.727 202.642 202.857 202.057 202.61C202.013 202.592 201.979 202.569 201.941 202.547C201.987 202.499 202.038 202.452 202.098 202.406L209.31 196.955C209.85 196.547 210.761 196.416 211.346 196.663C211.389 196.681 211.424 196.704 211.462 196.726C211.416 196.774 211.366 196.821 211.305 196.867L204.092 202.318Z" fill="black"/>
<path opacity="0.2" d="M215.453 197.466C216.038 197.713 216.074 198.244 215.535 198.652L208.322 204.104C207.782 204.512 206.871 204.643 206.286 204.396C205.702 204.149 205.666 203.618 206.205 203.21L213.417 197.758C213.957 197.35 214.868 197.22 215.453 197.466Z" fill="black"/>
<path opacity="0.2" d="M208.322 204.105C207.782 204.513 206.871 204.643 206.286 204.396C206.243 204.378 206.208 204.355 206.171 204.333C206.217 204.285 206.267 204.238 206.327 204.192L213.54 198.74C214.079 198.332 214.99 198.202 215.575 198.448C215.619 198.467 215.653 198.49 215.691 198.511C215.645 198.559 215.595 198.607 215.534 198.652L208.322 204.105Z" fill="black"/>
<path opacity="0.2" d="M185.823 184.955C186.407 185.202 186.444 185.733 185.905 186.141L178.691 191.593C178.152 192.001 177.241 192.132 176.657 191.885C176.072 191.637 176.035 191.107 176.575 190.699L183.787 185.247C184.327 184.839 185.237 184.709 185.823 184.955Z" fill="black"/>
<path opacity="0.2" d="M178.691 191.593C178.152 192.002 177.24 192.132 176.656 191.885C176.612 191.867 176.578 191.844 176.54 191.822C176.586 191.774 176.637 191.726 176.697 191.681L183.909 186.229C184.448 185.821 185.359 185.691 185.944 185.937C185.988 185.956 186.022 185.979 186.06 186C186.014 186.048 185.964 186.096 185.904 186.141L178.691 191.593Z" fill="black"/>
<path opacity="0.2" d="M190.052 186.741C190.636 186.987 190.673 187.519 190.134 187.927L182.92 193.379C182.381 193.787 181.47 193.918 180.885 193.671C180.301 193.423 180.264 192.893 180.804 192.485L188.016 187.033C188.556 186.625 189.467 186.494 190.052 186.741Z" fill="black"/>
<path opacity="0.2" d="M182.92 193.379C182.381 193.787 181.47 193.918 180.885 193.671C180.842 193.653 180.807 193.63 180.769 193.608C180.815 193.56 180.866 193.513 180.926 193.467L188.138 188.015C188.678 187.607 189.589 187.477 190.174 187.723C190.218 187.742 190.252 187.765 190.29 187.786C190.244 187.834 190.194 187.882 190.133 187.927L182.92 193.379Z" fill="black"/>
<path d="M194.523 214.549L195.201 214.037L197.317 214.931L196.639 215.443L194.523 214.549Z" fill="#455A64"/>
<path d="M196.639 215.443L198.56 224.894L197.317 214.931L196.639 215.443Z" fill="#263238"/>
<path d="M194.523 214.549L196.443 224L196.188 223.917L194.523 214.549Z" fill="#37474F"/>
<path d="M211.282 214.347L210.499 214.017L208.667 215.403L209.45 215.733L211.282 214.347Z" fill="#455A64"/>
<path d="M211.282 214.347L211.742 223.981L211.969 223.838L211.282 214.347Z" fill="black"/>
<path d="M218.612 208.802L217.829 208.471L215.997 209.857L216.78 210.187L218.612 208.802Z" fill="#455A64"/>
<path d="M209.909 225.366L209.45 215.733L208.667 215.403L209.909 225.366Z" fill="#37474F"/>
<path d="M215.997 209.857L217.239 219.821L216.78 210.188L215.997 209.857Z" fill="#37474F"/>
<path d="M218.612 208.802L219.072 218.435L219.299 218.292L218.612 208.802Z" fill="black"/>
<path d="M179.705 208.293L180.384 207.781L182.5 208.674L181.822 209.187L179.705 208.293Z" fill="#455A64"/>
<path d="M181.822 209.187L183.742 218.638L182.5 208.674L181.822 209.187Z" fill="#263238"/>
<path d="M179.705 208.293L181.626 217.744L181.37 217.661L179.705 208.293Z" fill="#37474F"/>
<path d="M198.089 212.458L197.799 210.179L193.565 208.391L192.953 208.854L193.244 211.133L197.477 212.92L198.089 212.458Z" fill="#E0E0E0"/>
<path d="M192.953 208.854L193.244 211.133L197.477 212.92L197.187 210.641L192.953 208.854Z" fill="#FAFAFA"/>
<path opacity="0.2" d="M197.187 210.641L197.799 210.179L198.089 212.458L197.477 212.92L197.187 210.641Z" fill="black"/>
<path d="M183.156 206.161L182.866 203.881L178.632 202.094L178.021 202.556L178.311 204.836L182.545 206.623L183.156 206.161Z" fill="#E0E0E0"/>
<path d="M178.021 202.556L178.311 204.836L182.545 206.623L182.254 204.344L178.021 202.556Z" fill="#FAFAFA"/>
<path opacity="0.2" d="M182.254 204.344L182.866 203.881L183.156 206.161L182.545 206.623L182.254 204.344Z" fill="black"/>
<path d="M186.864 174.367C186.864 174.367 190.855 179.512 190.755 180.071C190.48 181.597 190.472 182.517 190.929 184.241C191.202 185.273 202.002 188.91 202.002 188.91L202.118 187.465C202.196 186.49 201.602 182.793 201.247 181.882C200.094 178.923 198.844 176.316 196.454 171.566L186.864 174.367Z" fill="#B17117" fill-opacity="0.81"/>
<path d="M190.72 183.333L202.101 187.68L202.002 188.91C202.002 188.91 191.202 185.272 190.929 184.241C190.841 183.91 190.775 183.615 190.72 183.333Z" fill="#B17117" fill-opacity="0.81"/>
<path d="M191.526 187.227L192.031 191.504L190.473 192.668L189.802 186.987C189.767 186.696 189.96 186.553 190.229 186.669L191.526 187.227Z" fill="#263238"/>
<path d="M203.78 190.065L204.598 196.989L203.11 198.103L201.961 197.607L201.291 191.927C201.256 191.635 201.007 191.302 200.738 191.186L192.036 187.446L190.229 186.669C189.96 186.553 189.767 186.696 189.802 186.987L190.473 192.667L189.321 192.172L188.504 185.25C188.501 185.221 188.5 185.189 188.501 185.159C188.503 184.883 188.659 184.559 188.871 184.402L189.505 183.926C189.739 183.751 190.15 183.702 190.421 183.818L203.228 189.324C203.5 189.443 203.746 189.774 203.78 190.065Z" fill="#455A64"/>
<path d="M202.293 191.178L203.11 198.102L201.962 197.607L201.291 191.927C201.257 191.635 201.008 191.302 200.738 191.186L192.037 187.446L190.23 186.669C189.96 186.553 189.768 186.696 189.802 186.987L190.473 192.667L189.322 192.172L188.505 185.25C188.501 185.221 188.5 185.189 188.502 185.159C188.515 184.93 188.693 184.828 188.934 184.931L201.741 190.437C202.009 190.556 202.258 190.887 202.293 191.178Z" fill="#37474F"/>
<path d="M193.911 187.031C193.714 187.052 193.526 187.123 193.376 187.255C193.1 186.858 192.602 186.626 192.12 186.669C191.909 186.688 191.669 186.791 191.629 186.999C191.615 187.069 191.627 187.14 191.639 187.21C191.753 187.887 191.896 188.558 192.067 189.223C192.19 189.703 192.351 190.214 192.749 190.512C193.074 190.756 193.532 190.808 193.904 190.644C194.065 190.956 194.362 191.188 194.695 191.295C194.773 191.32 195.73 191.334 195.663 191.227C196.069 191.87 196.906 192.501 197.91 192.224C197.91 192.224 198.216 192.937 199.547 192.683C200.879 192.429 201.406 191.013 201.406 191.013L200.385 190.642C200.385 190.642 199.974 190.411 199.713 190.267C199.404 190.096 199.358 189.459 199.111 189.208C198.858 188.951 198.572 188.714 198.228 188.61C197.884 188.507 197.473 188.564 197.23 188.828C197.18 188.554 196.977 188.334 196.77 188.146C196.584 187.977 196.355 187.813 196.093 187.804C196.016 187.802 195.411 187.953 195.497 188.108C195.285 187.725 195.002 187.362 194.612 187.164C194.398 187.054 194.148 187.006 193.911 187.031Z" fill="#B17117" fill-opacity="0.81"/>
<path d="M197.961 176.423C198.213 176.813 198.472 177.198 198.741 177.576C200.163 179.581 201.732 181.738 201.627 184.301C201.603 184.886 201.432 185.823 201.273 186.387C201.179 186.722 201.088 187.058 200.993 187.394C200.893 187.746 200.792 188.1 200.635 188.431C200.432 188.858 200.14 189.237 199.864 189.615C199.379 190.281 198.873 190.946 198.226 191.455C198.191 191.482 198.154 191.506 198.113 191.523C197.948 191.59 197.75 191.527 197.621 191.404C196.983 190.797 197.36 189.821 197.624 189.141C197.917 188.385 198.27 187.616 198.193 186.783C198.183 186.68 198.153 186.355 198.126 185.839C198.121 185.841 197.275 185.691 197.275 185.691C197.275 185.691 194.525 185.236 194.382 183.932C194.304 183.229 194.548 182.539 194.823 181.904C195.038 181.409 195.513 180.841 195.602 180.31C195.708 179.671 195.298 178.79 195.15 178.169C194.961 177.374 194.781 176.577 194.61 175.778C194.579 175.636 194.549 175.485 194.597 175.348C194.647 175.202 194.774 175.098 194.892 174.997C195.407 174.553 195.83 174.002 196.126 173.389C196.722 174.409 197.319 175.431 197.961 176.423Z" fill="#B17117" fill-opacity="0.81"/>
<path d="M200.65 188.41C200.107 189.458 199.384 190.408 198.557 191.251C198.418 191.374 198.304 191.578 198.038 191.619C196.76 191.473 197.233 189.765 197.605 189.001C197.901 188.281 198.244 187.557 198.208 186.762C198.32 187.554 198.016 188.332 197.745 189.056C197.463 189.761 196.973 191.198 198.018 191.433C199.044 190.717 199.922 189.462 200.65 188.41Z" fill="#B17117" fill-opacity="0.81"/>
<path d="M197.518 185.856C197.176 185.712 196.806 185.615 196.48 185.436C196.227 185.296 196.009 185.095 195.829 184.869C195.394 184.322 194.989 183.59 195.052 182.871C195.056 182.827 195.001 182.75 194.98 182.826C194.748 183.647 195.037 184.541 195.518 185.221C195.744 185.539 196.065 185.784 196.409 185.963C196.586 186.055 196.775 186.121 196.972 186.156C197.196 186.196 197.354 186.189 197.553 186.078C197.626 186.038 197.582 185.883 197.518 185.856Z" fill="#B17117" fill-opacity="0.81"/>
<path d="M167.573 126.773C163.566 129.822 163.796 137.386 166.248 144.043C169.017 151.562 171.681 156.223 175.581 161.618C178.872 166.17 188.084 176.705 188.084 176.705C188.084 176.705 193.816 175.666 196.9 171.873L186.937 153.231C186.937 153.231 183.507 145.468 181.183 139.175C178.476 131.845 175.27 126.879 167.573 126.773Z" fill="#455A64"/>
<path d="M145.332 184.793C133.421 184.793 126.336 178.737 122.499 175.415C122.727 174.585 123.841 170.524 124.718 167.306L125.038 166.14C126.279 161.628 127.351 157.731 127.924 148.705C128.069 146.42 128.102 144.269 128.132 142.371C128.235 135.696 128.303 131.286 132.877 129.901C133.282 129.778 134.743 129.418 135.234 129.307C140.967 128.01 153.633 126.913 162.891 126.913C164.583 126.913 166.134 126.949 167.505 127.019C169.574 128.159 174.511 137.628 172.099 148.476C171.118 152.886 169.957 156 168.728 159.297C168.044 161.132 167.336 163.031 166.637 165.221C165.205 169.705 165.009 171.449 164.783 173.468C164.722 174.006 164.66 174.565 164.57 175.204C164.163 178.122 160.469 183.382 149.214 184.582C147.906 184.722 146.6 184.793 145.332 184.793Z" fill="#EBEBEB"/>
<path d="M162.893 126.664V127.164H162.893C164.556 127.164 166.083 127.198 167.434 127.267C169.603 128.549 174.125 138.216 171.855 148.423C170.878 152.817 169.72 155.923 168.494 159.212C167.809 161.05 167.1 162.95 166.399 165.146C164.96 169.654 164.763 171.409 164.535 173.441C164.474 173.979 164.412 174.536 164.323 175.171C163.925 178.017 160.29 183.151 149.188 184.335C147.888 184.473 146.591 184.543 145.333 184.543C133.637 184.543 126.622 178.651 122.782 175.329C123.082 174.238 124.127 170.425 124.959 167.371C125.067 166.976 125.173 166.589 125.278 166.207C126.524 161.682 127.599 157.773 128.174 148.721C128.319 146.43 128.352 144.276 128.382 142.376C128.487 135.577 128.55 131.473 132.949 130.14C133.35 130.019 134.8 129.662 135.289 129.552C141.007 128.257 153.647 127.164 162.891 127.164L162.893 126.664ZM162.892 126.664C153.441 126.664 140.904 127.768 135.179 129.064C134.689 129.175 133.225 129.535 132.805 129.662C126.704 131.509 128.327 138.41 127.675 148.689C127.056 158.443 125.876 162.103 124.477 167.24C123.496 170.842 122.217 175.501 122.217 175.501C125.946 178.73 133.204 185.043 145.333 185.043C146.583 185.043 147.885 184.976 149.241 184.832C160.678 183.612 164.393 178.287 164.818 175.24C165.244 172.192 165.072 170.948 166.875 165.298C168.817 159.215 170.807 155.439 172.343 148.532C174.744 137.736 169.833 127.909 167.573 126.773C166.146 126.698 164.568 126.664 162.892 126.664Z" fill="#E0E0E0"/>
<path d="M163.395 100.747C163.395 100.747 165.847 100.843 167.02 102.694C168.193 104.544 168.932 107.936 167.516 111.758C165.957 115.963 162.875 120.035 162.204 121.218C161.534 122.402 160.227 122.698 160.227 122.698L160.523 117.538L160.828 113.946C160.828 113.946 158.01 111.221 157.841 108.628C157.624 105.291 158.982 103.447 158.982 103.447L163.395 100.747Z" fill="#37474F"/>
<path d="M140.719 100.485C143.27 93.3051 147.208 93.3481 153.018 93.8418C160.108 94.444 163.68 98.0236 164.093 100.942L158.995 105.718L140.674 106.338C139.123 105.603 137.921 102.319 140.719 100.485Z" fill="#37474F"/>
<path d="M165.196 119.198C162.478 120.415 161.325 118.26 161.325 118.26L160.873 127.288C165.741 134.837 150.849 135.554 147.248 128.477L147.477 125.293C147.477 125.293 146.579 125.267 145.167 124.993C142.81 124.545 140.787 122.601 140.162 120.013C139.239 116.186 139.615 110.113 141.248 103.696C141.564 102.458 142.145 101.113 143.308 100.582C146.196 99.2665 148.761 101.375 152.674 103.044C154.294 103.735 158.264 104.141 159.328 103.681C157.898 105.163 157.759 109.984 159.734 112.004C160.069 112.694 160.431 113.102 160.712 113.365C161.555 114.146 162.325 112.223 163.077 111.484C163.836 110.751 166.587 110.157 167.685 112.698C168.794 115.287 167.713 118.071 165.196 119.198Z" fill="#B17117" fill-opacity="0.81"/>
<path d="M147.477 125.294C150.585 125.373 153.355 125.076 155.214 124.36C157.073 123.645 158.777 121.214 159.387 118.77C159.325 120.751 158.346 124.236 155.519 125.608C152.693 126.979 149.453 126.956 147.417 126.936L147.477 125.294Z" fill="#B17117" fill-opacity="0.81"/>
<path d="M152.54 106.688L155.196 107.726C155.467 106.967 155.092 106.119 154.359 105.832C153.625 105.545 152.811 105.928 152.54 106.688Z" fill="#37474F"/>
<path d="M142.702 106.539L145.345 105.41C145.058 104.662 144.234 104.31 143.504 104.621C142.775 104.933 142.415 105.791 142.702 106.539Z" fill="#37474F"/>
<path d="M154.229 109.949C154.223 110.59 153.698 111.105 153.056 111.099C152.414 111.092 151.899 110.567 151.906 109.926C151.912 109.284 152.438 108.769 153.079 108.775C153.721 108.781 154.236 109.307 154.229 109.949Z" fill="#263238"/>
<path d="M145.361 108.727C145.355 109.368 144.829 109.884 144.187 109.877C143.546 109.871 143.031 109.345 143.037 108.704C143.044 108.062 143.569 107.547 144.21 107.553C144.949 107.56 145.369 107.988 145.361 108.727Z" fill="#263238"/>
<path d="M149.328 107.496L148.56 114.916L144.617 113.574C145.941 110.93 147.511 108.905 149.328 107.496Z" fill="#B17117" fill-opacity="0.81"/>
<path d="M151.97 116.113L147.328 117.782C147.767 119.111 149.161 119.816 150.444 119.355C151.725 118.895 152.409 117.443 151.97 116.113Z" fill="#B16668"/>
<path d="M151.498 116.97C151.698 116.921 151.896 116.903 152.091 116.898C152.107 117.972 151.475 118.985 150.444 119.355C150.185 119.448 149.923 119.482 149.664 119.484C149.443 118.394 150.244 117.279 151.498 116.97Z" fill="#B17117" fill-opacity="0.81"/>
<path d="M153.538 101.224C150.923 100.228 146.441 99.9153 143.987 100.189C144.53 98.4878 144.695 96.2951 149.011 96.7357C153.328 97.1759 153.99 99.073 153.538 101.224Z" fill="#37474F"/>
<path d="M168.964 107.789C168.665 109.209 168.173 110.538 167.516 111.758C167.252 111.338 166.949 110.923 166.632 110.517C164.928 108.338 162.655 106.417 160.072 104.832L160.06 104.83C154.269 101.292 146.894 99.4936 140.719 100.485C141.079 99.3045 141.589 98.1927 142.216 97.1808C145.341 92.0442 151.454 89.1927 157.664 90.4947C165.571 92.1527 170.619 99.8947 168.964 107.789Z" fill="#1E8DCC"/>
<path d="M164.31 92.6549C163.622 92.2217 160.088 90.7193 159.806 90.5982C157.975 89.8105 154.928 89.5079 151.513 91.7306C147.09 94.61 145.736 99.0875 145.736 99.0875L149.486 100.741L150.713 100.998C151.489 98.1957 155.946 92.4593 161.26 92.8194C161.509 92.8339 161.754 92.8605 162.007 92.913C162.665 93.013 163.335 93.2291 164.007 93.5587C164.007 93.5587 165.311 94.7116 165.876 95.4328C165.876 95.4328 165.967 93.6802 164.31 92.6549Z" fill="#1E8DCC"/>
<path opacity="0.45" d="M164.31 92.6549C163.622 92.2217 160.088 90.7193 159.806 90.5982C157.975 89.8105 154.928 89.5079 151.513 91.7306C147.09 94.61 145.736 99.0875 145.736 99.0875L149.486 100.741L150.713 100.998C151.489 98.1957 155.946 92.4593 161.26 92.8194C161.509 92.8339 161.754 92.8605 162.007 92.913C162.665 93.013 163.335 93.2291 164.007 93.5587C164.007 93.5587 165.311 94.7116 165.876 95.4328C165.876 95.4328 165.967 93.6802 164.31 92.6549Z" fill="white"/>
<path d="M150.711 101C151.622 97.739 157.569 90.4341 164.004 93.5532C164.004 93.5532 165.317 94.71 165.881 95.4283C165.881 95.4283 165.962 93.6827 164.31 92.6524C162.657 91.622 159.208 90.8183 155.258 93.3886C150.837 96.265 149.489 100.744 149.489 100.744L150.711 101Z" fill="#1E8DCC"/>
<path opacity="0.3" d="M150.711 101C151.622 97.739 157.569 90.4341 164.004 93.5532C164.004 93.5532 165.317 94.71 165.881 95.4283C165.881 95.4283 165.962 93.6827 164.31 92.6524C162.657 91.622 159.208 90.8183 155.258 93.3886C150.837 96.265 149.489 100.744 149.489 100.744L150.711 101Z" fill="black"/>
<path d="M160.297 103.701C160.042 103.421 159.016 100.354 154.477 97.2394C151.676 95.3173 145.581 94.556 142.839 94.2949C138.036 93.8378 136.778 94.7301 136.639 95.4288C136.606 95.5949 136.452 96.3631 136.41 96.5367C136.368 96.7102 136.397 96.8733 136.46 97.0023C137.057 98.1702 140.719 100.485 140.719 100.485C146.895 99.4931 154.269 101.291 160.061 104.829L160.297 103.701Z" fill="#1E8DCC"/>
<path opacity="0.15" d="M160.297 103.701C160.042 103.421 159.016 100.354 154.477 97.2394C151.676 95.3173 145.581 94.556 142.839 94.2949C138.036 93.8378 136.778 94.7301 136.639 95.4288C136.606 95.5949 136.452 96.3631 136.41 96.5367C136.368 96.7102 136.397 96.8733 136.46 97.0023C137.057 98.1702 140.719 100.485 140.719 100.485C146.895 99.4931 154.269 101.291 160.061 104.829L160.297 103.701Z" fill="black"/>
<path d="M160.061 104.829C154.27 101.291 146.895 99.4931 140.719 100.485C140.719 100.485 137.057 98.1702 136.46 97.0023C136.143 96.3576 136.661 94.8586 142.601 95.4243C145.344 95.6854 151.439 96.4466 154.24 98.3688C158.78 101.483 159.805 104.55 160.061 104.829Z" fill="#1E8DCC"/>
<path opacity="0.3" d="M160.061 104.829C154.27 101.291 146.895 99.4931 140.719 100.485C140.719 100.485 137.057 98.1702 136.46 97.0023C136.143 96.3576 136.661 94.8586 142.601 95.4243C145.344 95.6854 151.439 96.4466 154.24 98.3688C158.78 101.483 159.805 104.55 160.061 104.829Z" fill="black"/>
<path d="M121.384 175.896L122.584 172.623C122.584 172.623 130.421 175.746 136.19 168.945C140.208 164.209 142.988 150.628 142.988 150.628C142.988 150.628 156.245 152.241 169.283 148.964C169.283 148.964 167.746 172.954 163.587 183.226C150.648 190.077 129.052 190.436 121.384 175.896Z" fill="#37474F"/>
<path d="M147.707 155.465C147.707 155.465 158.396 155.772 164.498 154.415C164.204 160.134 162.357 163.895 154.987 164.466C149.282 164.907 146.728 160.856 147.707 155.465Z" fill="#455A64"/>
<path d="M142.988 150.628C142.988 150.628 145.47 139.107 142.681 132.199C141.08 128.233 138.682 128.353 138.682 128.353C138.682 128.353 141.68 127.461 144.366 127.758C145.922 128.479 147.178 130.967 147.808 134.586C148.516 138.663 148.575 145.118 147.484 152.555L142.988 150.628Z" fill="#37474F"/>
<path d="M164.565 150.734C164.565 150.734 166.632 137.155 163.843 130.247C163.175 128.592 162.253 127.717 161.406 127.26L160.885 127.037L160.907 126.598C162.202 126.484 164.701 126.387 166.045 126.536C168.159 128.034 168.421 129.218 169.05 132.838C169.758 136.914 169.765 143.885 169.129 150.979L164.565 150.734Z" fill="#37474F"/>
<path d="M115.836 188.148L107.37 205.761L73.0571 189.268C71.6556 188.696 70.6868 187.185 70.5127 184.885C70.1801 180.487 72.8625 174.906 76.5042 172.42C78.3268 171.175 80.0444 170.942 81.3478 171.57V171.569L115.836 188.148Z" fill="#1E8DCC"/>
<path opacity="0.25" d="M115.836 188.148L107.37 205.761L73.0571 189.268C71.6556 188.696 70.6868 187.185 70.5127 184.885C70.1801 180.487 72.8625 174.906 76.5042 172.42C78.3268 171.175 80.0444 170.942 81.3478 171.57V171.569L115.836 188.148Z" fill="white"/>
<path d="M118.061 191.499L118.064 191.491C118.402 194.051 122.083 194.329 122.083 194.329L116.092 206.794C116.092 206.794 113.579 204.135 111.365 205.428L111.369 205.42C108.082 207.146 105.313 205.522 105.006 201.465C104.673 197.067 107.356 191.486 110.998 189C114.358 186.705 117.355 187.853 118.061 191.499Z" fill="#1E8DCC"/>
<path opacity="0.1" d="M118.061 191.499L118.064 191.491C118.402 194.051 122.083 194.329 122.083 194.329L116.092 206.794C116.092 206.794 113.579 204.135 111.365 205.428L111.369 205.42C108.082 207.146 105.313 205.522 105.006 201.465C104.673 197.067 107.356 191.486 110.998 189C114.358 186.705 117.355 187.853 118.061 191.499Z" fill="black"/>
<path opacity="0.05" d="M120.393 193.941C121.281 194.265 122.083 194.329 122.083 194.329L116.092 206.794C116.092 206.794 115.542 206.217 114.733 205.732C114.596 201.547 117.042 196.452 120.393 193.941Z" fill="black"/>
<path d="M129.321 194.63L128.82 195.672C129.059 196.278 129.219 196.984 129.28 197.788C129.612 202.185 126.93 207.766 123.288 210.253C122.622 210.708 121.971 211.024 121.348 211.216L120.847 212.258L118.449 211.105C117.146 210.479 116.257 208.992 116.091 206.793C115.759 202.396 118.441 196.816 122.083 194.328C123.904 193.085 125.62 192.85 126.922 193.477L129.321 194.63Z" fill="#1E8DCC"/>
<path opacity="0.25" d="M129.321 194.63L128.82 195.672C129.059 196.278 129.219 196.984 129.28 197.788C129.612 202.185 126.93 207.766 123.288 210.253C122.622 210.708 121.971 211.024 121.348 211.216L120.847 212.258L118.449 211.105C117.146 210.479 116.257 208.992 116.091 206.793C115.759 202.396 118.441 196.816 122.083 194.328C123.904 193.085 125.62 192.85 126.922 193.477L129.321 194.63Z" fill="white"/>
<path d="M118.491 207.947C118.158 203.549 120.841 197.969 124.482 195.482C128.124 192.995 131.346 194.544 131.679 198.941C132.011 203.339 129.329 208.92 125.687 211.406C122.046 213.893 118.823 212.344 118.491 207.947Z" fill="#1E8DCC"/>
<path opacity="0.15" d="M118.491 207.947C118.158 203.549 120.841 197.969 124.482 195.482C128.124 192.995 131.346 194.544 131.679 198.941C132.011 203.339 129.329 208.92 125.687 211.406C122.046 213.893 118.823 212.344 118.491 207.947Z" fill="black"/>
<path opacity="0.15" d="M128.209 209.024C127.715 209.638 127.178 210.192 126.614 210.68L124.65 206.2L126.489 204.619L128.209 209.024Z" fill="black"/>
<path d="M75.7645 179.732C75.3083 180.68 75.708 181.819 76.6568 182.275L101.167 194.056C102.116 194.512 103.255 194.113 103.711 193.164C104.167 192.216 103.767 191.077 102.818 190.621L78.3083 178.839C77.3595 178.383 76.2206 178.783 75.7645 179.732Z" fill="#1E8DCC"/>
<path d="M79.6197 174.361C78.926 175.038 79.0295 175.908 79.8508 176.303L104.821 188.306C105.643 188.701 106.872 188.471 107.566 187.794C108.26 187.116 108.157 186.246 107.335 185.851L82.3641 173.849C81.5429 173.453 80.3139 173.682 79.6197 174.361Z" fill="#1E8DCC"/>
<path d="M73.9783 186.097C74.0739 185.131 74.8181 184.669 75.6394 185.064L100.61 197.067C101.431 197.462 102.02 198.565 101.924 199.53C101.828 200.496 101.085 200.958 100.263 200.563L75.2923 188.56C74.4705 188.165 73.8823 187.062 73.9783 186.097Z" fill="#1E8DCC"/>
<path d="M187.96 230.702L188.308 235.3L176.533 232.432C176.533 232.432 173.915 228.381 171.516 227.228L125.937 205.319L124.302 201.603L125.59 200.722L171.168 222.631C173.567 223.784 175.747 222.038 175.747 222.038L187.96 230.702Z" fill="#455A64"/>
<path d="M186.673 231.583L187.022 236.181L175.246 233.313C175.246 233.313 172.628 229.262 170.23 228.109L124.651 206.2L124.302 201.603L169.881 223.512C172.28 224.665 174.459 222.92 174.459 222.92L186.673 231.583Z" fill="#37474F"/>
<path d="M187.021 236.181C184.068 235.519 178.15 234.171 175.205 233.483C173.759 231.661 172.301 229.471 170.177 228.355C154.966 221.121 139.683 213.781 124.651 206.2C139.958 213.207 155.247 220.55 170.392 227.923C172.565 229.171 174.01 231.209 175.394 233.218L175.288 233.143C178.21 233.884 184.105 235.412 187.021 236.181Z" fill="#263238"/>
<path d="M187.022 236.181L188.308 235.3L187.96 230.702L186.673 231.583L187.022 236.181Z" fill="#263238"/>
<path d="M187.96 230.702L186.673 231.583L174.459 222.92L175.747 222.039L187.96 230.702Z" fill="#455A64"/>
<path d="M110.511 198.778C109.771 197.878 109.092 196.117 108.47 194.036C107.847 191.956 106.91 191.388 105.906 190.113C104.902 188.838 105.319 188.115 105.595 187.405C105.746 187.015 113.675 167.281 113.675 167.281C113.675 167.281 121.483 160.271 126.228 155.598C132.753 149.97 135.585 138.173 133.417 135.477C131.71 136.034 129.421 135.576 124.801 137.395C122.447 138.321 121.127 139.965 118.268 143.175C112.997 149.09 107.692 155.659 105.283 158.149C103.607 159.883 102.145 161.666 101.023 166.346C99.8554 171.219 96.9374 184.209 96.6784 185.042C95.8366 187.751 93.9114 191.364 93.8079 193.069C93.7049 194.773 93.6424 196.912 93.6989 198.294C93.7549 199.658 94.7502 200.435 94.7777 200.457C94.8343 200.761 94.9048 201.045 94.9528 201.156C95.0768 201.443 95.3149 201.713 95.5655 201.897C95.9486 202.179 96.3247 202.304 96.7919 202.393C96.8579 202.883 97.2175 203.284 97.6097 203.584C97.9263 203.827 98.2829 204.03 98.674 204.109C99.0651 204.188 99.4948 204.132 99.8174 203.896C99.8559 203.868 99.8959 203.836 99.9434 203.832C100.02 203.824 100.082 203.888 100.135 203.943C100.531 204.356 101.096 204.601 101.667 204.608C102.239 204.615 102.554 204.505 103.018 204.173C103.301 203.971 103.416 203.86 103.416 203.86L102.874 203.6C102.874 203.6 102.7 203.442 102.595 202.993C102.527 202.702 102.452 202.387 102.485 202.087C102.593 201.107 102.442 200.618 102.96 198.232C103.478 195.845 103.895 195.121 104.496 195.151C105.098 195.18 105.835 196.964 107.648 198.961C109.461 200.958 111.252 199.679 110.511 198.778Z" fill="#B17117" fill-opacity="0.81"/>
<path d="M96.6449 202.082C96.6499 202.176 96.6589 202.27 96.6644 202.365C96.7069 202.374 96.7494 202.386 96.7919 202.394C96.8124 202.548 96.8694 202.689 96.94 202.825C96.926 202.575 96.9124 202.324 96.9049 202.073C96.8419 200.771 96.8839 199.47 96.9299 198.159C96.6684 199.447 96.6113 200.769 96.6449 202.082Z" fill="#B17117" fill-opacity="0.81"/>
<path d="M94.7792 200.457C94.5772 199.825 94.5457 199.159 94.5302 198.505C94.5482 197.849 94.5817 197.192 94.7427 196.55C94.7987 197.208 94.7787 197.856 94.7912 198.505L94.7792 200.457Z" fill="#B17117" fill-opacity="0.81"/>
<path d="M100.136 203.944C99.1642 202.012 99.4153 198.988 99.4153 198.988C99.4153 198.988 98.535 201.503 99.944 203.832L100.136 203.944Z" fill="#B17117" fill-opacity="0.81"/>
<path d="M135.179 129.064C126.259 130.382 124.289 133.6 117.482 140.01C111.797 145.365 108.898 148.606 105.682 152.559C103.118 155.711 101.812 160.571 100.733 164.149C99.6543 167.727 97.241 180.732 97.241 180.732C99.9899 178.908 105.74 181.293 107.236 184.28L116.973 163.967C116.973 163.967 127.589 155.663 131.34 152.329C135.09 148.996 142.144 140.535 135.179 129.064Z" fill="#455A64"/>
<path d="M136.296 265.859C134.16 264.504 132.006 263.18 129.849 261.864C127.687 260.558 125.52 259.258 123.336 257.99C121.156 256.714 118.958 255.473 116.739 254.266C118.842 255.683 120.963 257.066 123.103 258.414C125.239 259.769 127.393 261.092 129.55 262.41C131.712 263.717 133.879 265.016 136.062 266.285C138.242 267.561 140.441 268.801 142.659 270.007C140.558 268.589 138.437 267.206 136.296 265.859ZM126.294 254.298C128.457 255.605 130.623 256.905 132.807 258.173C134.986 259.449 137.186 260.69 139.403 261.895C137.302 260.477 135.181 259.095 133.04 257.748C130.904 256.393 128.75 255.069 126.593 253.753C124.43 252.446 122.264 251.146 120.08 249.878C117.9 248.603 115.702 247.362 113.483 246.155C115.586 247.572 117.707 248.955 119.847 250.303C121.983 251.658 124.137 252.981 126.294 254.298Z" fill="#E0E0E0"/>
<path d="M111.271 94.2754C115.155 94.9951 118.407 97.1659 120.586 100.12L121.522 101.556C123.231 104.529 123.938 108.1 123.266 111.731C121.761 119.849 113.932 125.23 105.814 123.726C102.183 123.053 99.1031 121.112 96.9394 118.452L95.9345 117.063C93.9579 113.97 93.0966 110.157 93.8163 106.273C95.3203 98.1512 103.149 92.7704 111.271 94.2754Z" fill="white"/>
<path d="M92.5634 106.068C90.9469 114.879 96.7998 123.363 105.611 124.98C113.516 126.43 121.151 121.865 123.807 114.549L128.764 113.605C129.611 113.443 129.816 112.325 129.081 111.874L124.782 109.231C124.897 101.449 119.379 94.4715 111.475 93.021C102.664 91.4045 94.1805 97.2574 92.5634 106.068ZM111.246 94.2694C115.131 94.9822 118.387 97.1474 120.571 100.097L121.51 101.532C123.224 104.502 123.938 108.072 123.271 111.704C121.781 119.824 113.961 125.22 105.84 123.729C102.209 123.063 99.1251 121.128 96.9564 118.471L95.9491 117.085C93.9669 113.995 93.0986 110.183 93.8119 106.298C95.3023 98.1732 103.122 92.7784 111.246 94.2694Z" fill="#455A64"/>
<path d="M106.267 118.611C105.62 118.611 104.998 118.343 104.553 117.868L99.2301 112.184C98.3438 111.237 98.3923 109.751 99.3391 108.864C100.286 107.977 101.772 108.027 102.659 108.973L106.116 112.665L114.296 102.304C115.098 101.286 116.575 101.112 117.594 101.916C118.612 102.72 118.786 104.197 117.982 105.215L108.111 117.718C107.687 118.255 107.05 118.58 106.367 118.608C106.333 118.61 106.3 118.611 106.267 118.611Z" fill="#1E8DCC"/>
</g>
<defs>
<filter id="filter0_b_37_2735" x="-4" y="-3.27399" width="288.082" height="337.623" filterUnits="userSpaceOnUse" color-interpolation-filters="sRGB">
<feFlood flood-opacity="0" result="BackgroundImageFix"/>
<feGaussianBlur in="BackgroundImageFix" stdDeviation="2"/>
<feComposite in2="SourceAlpha" operator="in" result="effect1_backgroundBlur_37_2735"/>
<feBlend mode="normal" in="SourceGraphic" in2="effect1_backgroundBlur_37_2735" result="shape"/>
</filter>
<filter id="filter1_b_37_2735" x="11" y="-3.27399" width="73.1879" height="80.5405" filterUnits="userSpaceOnUse" color-interpolation-filters="sRGB">
<feFlood flood-opacity="0" result="BackgroundImageFix"/>
<feGaussianBlur in="BackgroundImageFix" stdDeviation="2"/>
<feComposite in2="SourceAlpha" operator="in" result="effect1_backgroundBlur_37_2735"/>
<feBlend mode="normal" in="SourceGraphic" in2="effect1_backgroundBlur_37_2735" result="shape"/>
</filter>
</defs>
</svg>
